%
M48
M72
T01C0.0138
T02C0.0400
T03C0.0520
T04C0.1200
%
T01
X6893Y3727
X6893Y5227
X8393Y3727
X8893Y4727
X9643Y4727
X8893Y5477
X8893Y6227
X10393Y6227
X10393Y5477
X11143Y6227
X11893Y6952
X11918Y7377
X13143Y7402
X13168Y6927
X13218Y6452
X13293Y5952
X13793Y5952
X13518Y4727
X14393Y4727
X15268Y4727
X16143Y4727
X15893Y6227
X16893Y6227
X17893Y5727
X17893Y4727
X19393Y4727
X19393Y5727
X19393Y6727
X19393Y7727
X19393Y8727
X19393Y9727
X19393Y10727
X19393Y11727
X19393Y12727
X19393Y13727
X18143Y13227
X18143Y12852
X17768Y13727
X16393Y13227
X16393Y12727
X15893Y13727
X14643Y13227
X14643Y12852
X14393Y13727
X14393Y15227
X13393Y15227
X11893Y15227
X12393Y13727
X11518Y12727
X11518Y11977
X11518Y11227
X11143Y10477
X10643Y10477
X10143Y10477
X9643Y10477
X9143Y10477
X9393Y9727
X10143Y9727
X10893Y9727
X12393Y10227
X12393Y11227
X14143Y11227
X14143Y10227
X16143Y10352
X16143Y10977
X17893Y9602
X17893Y8352
X17893Y7352
X16768Y7602
X16768Y8352
X15518Y8352
X15543Y7602
X12393Y4727
X12268Y3227
X13518Y3227
X14393Y3227
X15268Y3227
X15893Y3227
X16393Y2102
X11393Y2102
X9768Y2227
X8893Y2227
X7393Y2227
X9643Y3727
X8518Y11977
X8518Y12727
X7143Y12727
X7143Y11977
X8393Y14227
X8393Y14727
X8393Y15227
X8393Y15727
X8893Y15727
X9393Y15727
X9893Y15727
X9893Y15227
X9893Y14727
X9893Y14227
X7393Y15227
X15893Y15227
T02
X14893Y3721
X13893Y3721
X12893Y3721
T03
X5393Y5737
X5393Y7717
X5393Y10237
X5393Y12217
T04
X5393Y3227
X5393Y15227
X18893Y15227
X18893Y3227
M30
