G75*
%MOIN*%
%OFA0B0*%
%FSLAX25Y25*%
%IPPOS*%
%LPD*%
%AMOC8*
5,1,8,0,0,1.08239X$1,22.5*
%
%ADD10C,0.08080*%
%ADD11R,0.06312X0.12611*%
%ADD12R,0.06312X0.06312*%
%ADD13R,0.07099X0.12611*%
%ADD14R,0.19800X0.23300*%
%ADD15R,0.07099X0.05918*%
%ADD16C,0.12800*%
%ADD17R,0.03200X0.09500*%
%ADD18R,0.08200X0.08200*%
%ADD19C,0.08200*%
%ADD20R,0.06706X0.05918*%
%ADD21R,0.09461X0.03162*%
%ADD22R,0.05918X0.06706*%
D10*
X0050293Y0057371D02*
X0057573Y0057371D01*
X0057573Y0077171D02*
X0050293Y0077171D01*
X0050293Y0102371D02*
X0057573Y0102371D01*
X0057573Y0122171D02*
X0050293Y0122171D01*
D11*
X0096433Y0076720D03*
X0096433Y0057823D03*
D12*
X0107683Y0047252D03*
X0107683Y0032291D03*
X0168933Y0032291D03*
X0168933Y0047252D03*
X0078933Y0104791D03*
X0078933Y0119752D03*
D13*
X0091207Y0148177D03*
X0109159Y0148177D03*
D14*
X0100183Y0121019D03*
D15*
X0130183Y0124781D03*
X0130183Y0132262D03*
D16*
X0053933Y0032271D03*
X0053933Y0152271D03*
X0188933Y0152271D03*
X0188933Y0032271D03*
D17*
X0151433Y0066971D03*
X0146433Y0066971D03*
X0141433Y0066971D03*
X0136433Y0066971D03*
X0136433Y0087571D03*
X0141433Y0087571D03*
X0146433Y0087571D03*
X0151433Y0087571D03*
D18*
X0128933Y0037212D03*
D19*
X0138933Y0037212D03*
X0148933Y0037212D03*
D20*
X0125183Y0061175D03*
X0125183Y0067868D03*
X0125183Y0077675D03*
X0125183Y0084368D03*
X0161433Y0081425D03*
X0161433Y0088118D03*
D21*
X0153697Y0114771D03*
X0153697Y0119771D03*
X0153697Y0124771D03*
X0153697Y0129771D03*
X0174169Y0129771D03*
X0174169Y0124771D03*
X0174169Y0119771D03*
X0174169Y0114771D03*
D22*
X0174530Y0107271D03*
X0167837Y0107271D03*
X0153530Y0107271D03*
X0146837Y0107271D03*
M02*
