G75*
%MOIN*%
%OFA0B0*%
%FSLAX25Y25*%
%IPPOS*%
%LPD*%
%AMOC8*
5,1,8,0,0,1.08239X$1,22.5*
%
%ADD10C,0.01000*%
%ADD11C,0.00000*%
D10*
X0038933Y0017271D02*
X0038933Y0167232D01*
X0203884Y0167232D01*
X0203884Y0017271D01*
X0038933Y0017271D01*
D11*
X0047933Y0032271D02*
X0047935Y0032425D01*
X0047941Y0032580D01*
X0047951Y0032734D01*
X0047965Y0032888D01*
X0047983Y0033041D01*
X0048004Y0033194D01*
X0048030Y0033347D01*
X0048060Y0033498D01*
X0048093Y0033649D01*
X0048131Y0033799D01*
X0048172Y0033948D01*
X0048217Y0034096D01*
X0048266Y0034242D01*
X0048319Y0034388D01*
X0048375Y0034531D01*
X0048435Y0034674D01*
X0048499Y0034814D01*
X0048566Y0034954D01*
X0048637Y0035091D01*
X0048711Y0035226D01*
X0048789Y0035360D01*
X0048870Y0035491D01*
X0048955Y0035620D01*
X0049043Y0035748D01*
X0049134Y0035872D01*
X0049228Y0035995D01*
X0049326Y0036115D01*
X0049426Y0036232D01*
X0049530Y0036347D01*
X0049636Y0036459D01*
X0049745Y0036568D01*
X0049857Y0036674D01*
X0049972Y0036778D01*
X0050089Y0036878D01*
X0050209Y0036976D01*
X0050332Y0037070D01*
X0050456Y0037161D01*
X0050584Y0037249D01*
X0050713Y0037334D01*
X0050844Y0037415D01*
X0050978Y0037493D01*
X0051113Y0037567D01*
X0051250Y0037638D01*
X0051390Y0037705D01*
X0051530Y0037769D01*
X0051673Y0037829D01*
X0051816Y0037885D01*
X0051962Y0037938D01*
X0052108Y0037987D01*
X0052256Y0038032D01*
X0052405Y0038073D01*
X0052555Y0038111D01*
X0052706Y0038144D01*
X0052857Y0038174D01*
X0053010Y0038200D01*
X0053163Y0038221D01*
X0053316Y0038239D01*
X0053470Y0038253D01*
X0053624Y0038263D01*
X0053779Y0038269D01*
X0053933Y0038271D01*
X0054087Y0038269D01*
X0054242Y0038263D01*
X0054396Y0038253D01*
X0054550Y0038239D01*
X0054703Y0038221D01*
X0054856Y0038200D01*
X0055009Y0038174D01*
X0055160Y0038144D01*
X0055311Y0038111D01*
X0055461Y0038073D01*
X0055610Y0038032D01*
X0055758Y0037987D01*
X0055904Y0037938D01*
X0056050Y0037885D01*
X0056193Y0037829D01*
X0056336Y0037769D01*
X0056476Y0037705D01*
X0056616Y0037638D01*
X0056753Y0037567D01*
X0056888Y0037493D01*
X0057022Y0037415D01*
X0057153Y0037334D01*
X0057282Y0037249D01*
X0057410Y0037161D01*
X0057534Y0037070D01*
X0057657Y0036976D01*
X0057777Y0036878D01*
X0057894Y0036778D01*
X0058009Y0036674D01*
X0058121Y0036568D01*
X0058230Y0036459D01*
X0058336Y0036347D01*
X0058440Y0036232D01*
X0058540Y0036115D01*
X0058638Y0035995D01*
X0058732Y0035872D01*
X0058823Y0035748D01*
X0058911Y0035620D01*
X0058996Y0035491D01*
X0059077Y0035360D01*
X0059155Y0035226D01*
X0059229Y0035091D01*
X0059300Y0034954D01*
X0059367Y0034814D01*
X0059431Y0034674D01*
X0059491Y0034531D01*
X0059547Y0034388D01*
X0059600Y0034242D01*
X0059649Y0034096D01*
X0059694Y0033948D01*
X0059735Y0033799D01*
X0059773Y0033649D01*
X0059806Y0033498D01*
X0059836Y0033347D01*
X0059862Y0033194D01*
X0059883Y0033041D01*
X0059901Y0032888D01*
X0059915Y0032734D01*
X0059925Y0032580D01*
X0059931Y0032425D01*
X0059933Y0032271D01*
X0059931Y0032117D01*
X0059925Y0031962D01*
X0059915Y0031808D01*
X0059901Y0031654D01*
X0059883Y0031501D01*
X0059862Y0031348D01*
X0059836Y0031195D01*
X0059806Y0031044D01*
X0059773Y0030893D01*
X0059735Y0030743D01*
X0059694Y0030594D01*
X0059649Y0030446D01*
X0059600Y0030300D01*
X0059547Y0030154D01*
X0059491Y0030011D01*
X0059431Y0029868D01*
X0059367Y0029728D01*
X0059300Y0029588D01*
X0059229Y0029451D01*
X0059155Y0029316D01*
X0059077Y0029182D01*
X0058996Y0029051D01*
X0058911Y0028922D01*
X0058823Y0028794D01*
X0058732Y0028670D01*
X0058638Y0028547D01*
X0058540Y0028427D01*
X0058440Y0028310D01*
X0058336Y0028195D01*
X0058230Y0028083D01*
X0058121Y0027974D01*
X0058009Y0027868D01*
X0057894Y0027764D01*
X0057777Y0027664D01*
X0057657Y0027566D01*
X0057534Y0027472D01*
X0057410Y0027381D01*
X0057282Y0027293D01*
X0057153Y0027208D01*
X0057022Y0027127D01*
X0056888Y0027049D01*
X0056753Y0026975D01*
X0056616Y0026904D01*
X0056476Y0026837D01*
X0056336Y0026773D01*
X0056193Y0026713D01*
X0056050Y0026657D01*
X0055904Y0026604D01*
X0055758Y0026555D01*
X0055610Y0026510D01*
X0055461Y0026469D01*
X0055311Y0026431D01*
X0055160Y0026398D01*
X0055009Y0026368D01*
X0054856Y0026342D01*
X0054703Y0026321D01*
X0054550Y0026303D01*
X0054396Y0026289D01*
X0054242Y0026279D01*
X0054087Y0026273D01*
X0053933Y0026271D01*
X0053779Y0026273D01*
X0053624Y0026279D01*
X0053470Y0026289D01*
X0053316Y0026303D01*
X0053163Y0026321D01*
X0053010Y0026342D01*
X0052857Y0026368D01*
X0052706Y0026398D01*
X0052555Y0026431D01*
X0052405Y0026469D01*
X0052256Y0026510D01*
X0052108Y0026555D01*
X0051962Y0026604D01*
X0051816Y0026657D01*
X0051673Y0026713D01*
X0051530Y0026773D01*
X0051390Y0026837D01*
X0051250Y0026904D01*
X0051113Y0026975D01*
X0050978Y0027049D01*
X0050844Y0027127D01*
X0050713Y0027208D01*
X0050584Y0027293D01*
X0050456Y0027381D01*
X0050332Y0027472D01*
X0050209Y0027566D01*
X0050089Y0027664D01*
X0049972Y0027764D01*
X0049857Y0027868D01*
X0049745Y0027974D01*
X0049636Y0028083D01*
X0049530Y0028195D01*
X0049426Y0028310D01*
X0049326Y0028427D01*
X0049228Y0028547D01*
X0049134Y0028670D01*
X0049043Y0028794D01*
X0048955Y0028922D01*
X0048870Y0029051D01*
X0048789Y0029182D01*
X0048711Y0029316D01*
X0048637Y0029451D01*
X0048566Y0029588D01*
X0048499Y0029728D01*
X0048435Y0029868D01*
X0048375Y0030011D01*
X0048319Y0030154D01*
X0048266Y0030300D01*
X0048217Y0030446D01*
X0048172Y0030594D01*
X0048131Y0030743D01*
X0048093Y0030893D01*
X0048060Y0031044D01*
X0048030Y0031195D01*
X0048004Y0031348D01*
X0047983Y0031501D01*
X0047965Y0031654D01*
X0047951Y0031808D01*
X0047941Y0031962D01*
X0047935Y0032117D01*
X0047933Y0032271D01*
X0047933Y0152271D02*
X0047935Y0152425D01*
X0047941Y0152580D01*
X0047951Y0152734D01*
X0047965Y0152888D01*
X0047983Y0153041D01*
X0048004Y0153194D01*
X0048030Y0153347D01*
X0048060Y0153498D01*
X0048093Y0153649D01*
X0048131Y0153799D01*
X0048172Y0153948D01*
X0048217Y0154096D01*
X0048266Y0154242D01*
X0048319Y0154388D01*
X0048375Y0154531D01*
X0048435Y0154674D01*
X0048499Y0154814D01*
X0048566Y0154954D01*
X0048637Y0155091D01*
X0048711Y0155226D01*
X0048789Y0155360D01*
X0048870Y0155491D01*
X0048955Y0155620D01*
X0049043Y0155748D01*
X0049134Y0155872D01*
X0049228Y0155995D01*
X0049326Y0156115D01*
X0049426Y0156232D01*
X0049530Y0156347D01*
X0049636Y0156459D01*
X0049745Y0156568D01*
X0049857Y0156674D01*
X0049972Y0156778D01*
X0050089Y0156878D01*
X0050209Y0156976D01*
X0050332Y0157070D01*
X0050456Y0157161D01*
X0050584Y0157249D01*
X0050713Y0157334D01*
X0050844Y0157415D01*
X0050978Y0157493D01*
X0051113Y0157567D01*
X0051250Y0157638D01*
X0051390Y0157705D01*
X0051530Y0157769D01*
X0051673Y0157829D01*
X0051816Y0157885D01*
X0051962Y0157938D01*
X0052108Y0157987D01*
X0052256Y0158032D01*
X0052405Y0158073D01*
X0052555Y0158111D01*
X0052706Y0158144D01*
X0052857Y0158174D01*
X0053010Y0158200D01*
X0053163Y0158221D01*
X0053316Y0158239D01*
X0053470Y0158253D01*
X0053624Y0158263D01*
X0053779Y0158269D01*
X0053933Y0158271D01*
X0054087Y0158269D01*
X0054242Y0158263D01*
X0054396Y0158253D01*
X0054550Y0158239D01*
X0054703Y0158221D01*
X0054856Y0158200D01*
X0055009Y0158174D01*
X0055160Y0158144D01*
X0055311Y0158111D01*
X0055461Y0158073D01*
X0055610Y0158032D01*
X0055758Y0157987D01*
X0055904Y0157938D01*
X0056050Y0157885D01*
X0056193Y0157829D01*
X0056336Y0157769D01*
X0056476Y0157705D01*
X0056616Y0157638D01*
X0056753Y0157567D01*
X0056888Y0157493D01*
X0057022Y0157415D01*
X0057153Y0157334D01*
X0057282Y0157249D01*
X0057410Y0157161D01*
X0057534Y0157070D01*
X0057657Y0156976D01*
X0057777Y0156878D01*
X0057894Y0156778D01*
X0058009Y0156674D01*
X0058121Y0156568D01*
X0058230Y0156459D01*
X0058336Y0156347D01*
X0058440Y0156232D01*
X0058540Y0156115D01*
X0058638Y0155995D01*
X0058732Y0155872D01*
X0058823Y0155748D01*
X0058911Y0155620D01*
X0058996Y0155491D01*
X0059077Y0155360D01*
X0059155Y0155226D01*
X0059229Y0155091D01*
X0059300Y0154954D01*
X0059367Y0154814D01*
X0059431Y0154674D01*
X0059491Y0154531D01*
X0059547Y0154388D01*
X0059600Y0154242D01*
X0059649Y0154096D01*
X0059694Y0153948D01*
X0059735Y0153799D01*
X0059773Y0153649D01*
X0059806Y0153498D01*
X0059836Y0153347D01*
X0059862Y0153194D01*
X0059883Y0153041D01*
X0059901Y0152888D01*
X0059915Y0152734D01*
X0059925Y0152580D01*
X0059931Y0152425D01*
X0059933Y0152271D01*
X0059931Y0152117D01*
X0059925Y0151962D01*
X0059915Y0151808D01*
X0059901Y0151654D01*
X0059883Y0151501D01*
X0059862Y0151348D01*
X0059836Y0151195D01*
X0059806Y0151044D01*
X0059773Y0150893D01*
X0059735Y0150743D01*
X0059694Y0150594D01*
X0059649Y0150446D01*
X0059600Y0150300D01*
X0059547Y0150154D01*
X0059491Y0150011D01*
X0059431Y0149868D01*
X0059367Y0149728D01*
X0059300Y0149588D01*
X0059229Y0149451D01*
X0059155Y0149316D01*
X0059077Y0149182D01*
X0058996Y0149051D01*
X0058911Y0148922D01*
X0058823Y0148794D01*
X0058732Y0148670D01*
X0058638Y0148547D01*
X0058540Y0148427D01*
X0058440Y0148310D01*
X0058336Y0148195D01*
X0058230Y0148083D01*
X0058121Y0147974D01*
X0058009Y0147868D01*
X0057894Y0147764D01*
X0057777Y0147664D01*
X0057657Y0147566D01*
X0057534Y0147472D01*
X0057410Y0147381D01*
X0057282Y0147293D01*
X0057153Y0147208D01*
X0057022Y0147127D01*
X0056888Y0147049D01*
X0056753Y0146975D01*
X0056616Y0146904D01*
X0056476Y0146837D01*
X0056336Y0146773D01*
X0056193Y0146713D01*
X0056050Y0146657D01*
X0055904Y0146604D01*
X0055758Y0146555D01*
X0055610Y0146510D01*
X0055461Y0146469D01*
X0055311Y0146431D01*
X0055160Y0146398D01*
X0055009Y0146368D01*
X0054856Y0146342D01*
X0054703Y0146321D01*
X0054550Y0146303D01*
X0054396Y0146289D01*
X0054242Y0146279D01*
X0054087Y0146273D01*
X0053933Y0146271D01*
X0053779Y0146273D01*
X0053624Y0146279D01*
X0053470Y0146289D01*
X0053316Y0146303D01*
X0053163Y0146321D01*
X0053010Y0146342D01*
X0052857Y0146368D01*
X0052706Y0146398D01*
X0052555Y0146431D01*
X0052405Y0146469D01*
X0052256Y0146510D01*
X0052108Y0146555D01*
X0051962Y0146604D01*
X0051816Y0146657D01*
X0051673Y0146713D01*
X0051530Y0146773D01*
X0051390Y0146837D01*
X0051250Y0146904D01*
X0051113Y0146975D01*
X0050978Y0147049D01*
X0050844Y0147127D01*
X0050713Y0147208D01*
X0050584Y0147293D01*
X0050456Y0147381D01*
X0050332Y0147472D01*
X0050209Y0147566D01*
X0050089Y0147664D01*
X0049972Y0147764D01*
X0049857Y0147868D01*
X0049745Y0147974D01*
X0049636Y0148083D01*
X0049530Y0148195D01*
X0049426Y0148310D01*
X0049326Y0148427D01*
X0049228Y0148547D01*
X0049134Y0148670D01*
X0049043Y0148794D01*
X0048955Y0148922D01*
X0048870Y0149051D01*
X0048789Y0149182D01*
X0048711Y0149316D01*
X0048637Y0149451D01*
X0048566Y0149588D01*
X0048499Y0149728D01*
X0048435Y0149868D01*
X0048375Y0150011D01*
X0048319Y0150154D01*
X0048266Y0150300D01*
X0048217Y0150446D01*
X0048172Y0150594D01*
X0048131Y0150743D01*
X0048093Y0150893D01*
X0048060Y0151044D01*
X0048030Y0151195D01*
X0048004Y0151348D01*
X0047983Y0151501D01*
X0047965Y0151654D01*
X0047951Y0151808D01*
X0047941Y0151962D01*
X0047935Y0152117D01*
X0047933Y0152271D01*
X0182933Y0152271D02*
X0182935Y0152425D01*
X0182941Y0152580D01*
X0182951Y0152734D01*
X0182965Y0152888D01*
X0182983Y0153041D01*
X0183004Y0153194D01*
X0183030Y0153347D01*
X0183060Y0153498D01*
X0183093Y0153649D01*
X0183131Y0153799D01*
X0183172Y0153948D01*
X0183217Y0154096D01*
X0183266Y0154242D01*
X0183319Y0154388D01*
X0183375Y0154531D01*
X0183435Y0154674D01*
X0183499Y0154814D01*
X0183566Y0154954D01*
X0183637Y0155091D01*
X0183711Y0155226D01*
X0183789Y0155360D01*
X0183870Y0155491D01*
X0183955Y0155620D01*
X0184043Y0155748D01*
X0184134Y0155872D01*
X0184228Y0155995D01*
X0184326Y0156115D01*
X0184426Y0156232D01*
X0184530Y0156347D01*
X0184636Y0156459D01*
X0184745Y0156568D01*
X0184857Y0156674D01*
X0184972Y0156778D01*
X0185089Y0156878D01*
X0185209Y0156976D01*
X0185332Y0157070D01*
X0185456Y0157161D01*
X0185584Y0157249D01*
X0185713Y0157334D01*
X0185844Y0157415D01*
X0185978Y0157493D01*
X0186113Y0157567D01*
X0186250Y0157638D01*
X0186390Y0157705D01*
X0186530Y0157769D01*
X0186673Y0157829D01*
X0186816Y0157885D01*
X0186962Y0157938D01*
X0187108Y0157987D01*
X0187256Y0158032D01*
X0187405Y0158073D01*
X0187555Y0158111D01*
X0187706Y0158144D01*
X0187857Y0158174D01*
X0188010Y0158200D01*
X0188163Y0158221D01*
X0188316Y0158239D01*
X0188470Y0158253D01*
X0188624Y0158263D01*
X0188779Y0158269D01*
X0188933Y0158271D01*
X0189087Y0158269D01*
X0189242Y0158263D01*
X0189396Y0158253D01*
X0189550Y0158239D01*
X0189703Y0158221D01*
X0189856Y0158200D01*
X0190009Y0158174D01*
X0190160Y0158144D01*
X0190311Y0158111D01*
X0190461Y0158073D01*
X0190610Y0158032D01*
X0190758Y0157987D01*
X0190904Y0157938D01*
X0191050Y0157885D01*
X0191193Y0157829D01*
X0191336Y0157769D01*
X0191476Y0157705D01*
X0191616Y0157638D01*
X0191753Y0157567D01*
X0191888Y0157493D01*
X0192022Y0157415D01*
X0192153Y0157334D01*
X0192282Y0157249D01*
X0192410Y0157161D01*
X0192534Y0157070D01*
X0192657Y0156976D01*
X0192777Y0156878D01*
X0192894Y0156778D01*
X0193009Y0156674D01*
X0193121Y0156568D01*
X0193230Y0156459D01*
X0193336Y0156347D01*
X0193440Y0156232D01*
X0193540Y0156115D01*
X0193638Y0155995D01*
X0193732Y0155872D01*
X0193823Y0155748D01*
X0193911Y0155620D01*
X0193996Y0155491D01*
X0194077Y0155360D01*
X0194155Y0155226D01*
X0194229Y0155091D01*
X0194300Y0154954D01*
X0194367Y0154814D01*
X0194431Y0154674D01*
X0194491Y0154531D01*
X0194547Y0154388D01*
X0194600Y0154242D01*
X0194649Y0154096D01*
X0194694Y0153948D01*
X0194735Y0153799D01*
X0194773Y0153649D01*
X0194806Y0153498D01*
X0194836Y0153347D01*
X0194862Y0153194D01*
X0194883Y0153041D01*
X0194901Y0152888D01*
X0194915Y0152734D01*
X0194925Y0152580D01*
X0194931Y0152425D01*
X0194933Y0152271D01*
X0194931Y0152117D01*
X0194925Y0151962D01*
X0194915Y0151808D01*
X0194901Y0151654D01*
X0194883Y0151501D01*
X0194862Y0151348D01*
X0194836Y0151195D01*
X0194806Y0151044D01*
X0194773Y0150893D01*
X0194735Y0150743D01*
X0194694Y0150594D01*
X0194649Y0150446D01*
X0194600Y0150300D01*
X0194547Y0150154D01*
X0194491Y0150011D01*
X0194431Y0149868D01*
X0194367Y0149728D01*
X0194300Y0149588D01*
X0194229Y0149451D01*
X0194155Y0149316D01*
X0194077Y0149182D01*
X0193996Y0149051D01*
X0193911Y0148922D01*
X0193823Y0148794D01*
X0193732Y0148670D01*
X0193638Y0148547D01*
X0193540Y0148427D01*
X0193440Y0148310D01*
X0193336Y0148195D01*
X0193230Y0148083D01*
X0193121Y0147974D01*
X0193009Y0147868D01*
X0192894Y0147764D01*
X0192777Y0147664D01*
X0192657Y0147566D01*
X0192534Y0147472D01*
X0192410Y0147381D01*
X0192282Y0147293D01*
X0192153Y0147208D01*
X0192022Y0147127D01*
X0191888Y0147049D01*
X0191753Y0146975D01*
X0191616Y0146904D01*
X0191476Y0146837D01*
X0191336Y0146773D01*
X0191193Y0146713D01*
X0191050Y0146657D01*
X0190904Y0146604D01*
X0190758Y0146555D01*
X0190610Y0146510D01*
X0190461Y0146469D01*
X0190311Y0146431D01*
X0190160Y0146398D01*
X0190009Y0146368D01*
X0189856Y0146342D01*
X0189703Y0146321D01*
X0189550Y0146303D01*
X0189396Y0146289D01*
X0189242Y0146279D01*
X0189087Y0146273D01*
X0188933Y0146271D01*
X0188779Y0146273D01*
X0188624Y0146279D01*
X0188470Y0146289D01*
X0188316Y0146303D01*
X0188163Y0146321D01*
X0188010Y0146342D01*
X0187857Y0146368D01*
X0187706Y0146398D01*
X0187555Y0146431D01*
X0187405Y0146469D01*
X0187256Y0146510D01*
X0187108Y0146555D01*
X0186962Y0146604D01*
X0186816Y0146657D01*
X0186673Y0146713D01*
X0186530Y0146773D01*
X0186390Y0146837D01*
X0186250Y0146904D01*
X0186113Y0146975D01*
X0185978Y0147049D01*
X0185844Y0147127D01*
X0185713Y0147208D01*
X0185584Y0147293D01*
X0185456Y0147381D01*
X0185332Y0147472D01*
X0185209Y0147566D01*
X0185089Y0147664D01*
X0184972Y0147764D01*
X0184857Y0147868D01*
X0184745Y0147974D01*
X0184636Y0148083D01*
X0184530Y0148195D01*
X0184426Y0148310D01*
X0184326Y0148427D01*
X0184228Y0148547D01*
X0184134Y0148670D01*
X0184043Y0148794D01*
X0183955Y0148922D01*
X0183870Y0149051D01*
X0183789Y0149182D01*
X0183711Y0149316D01*
X0183637Y0149451D01*
X0183566Y0149588D01*
X0183499Y0149728D01*
X0183435Y0149868D01*
X0183375Y0150011D01*
X0183319Y0150154D01*
X0183266Y0150300D01*
X0183217Y0150446D01*
X0183172Y0150594D01*
X0183131Y0150743D01*
X0183093Y0150893D01*
X0183060Y0151044D01*
X0183030Y0151195D01*
X0183004Y0151348D01*
X0182983Y0151501D01*
X0182965Y0151654D01*
X0182951Y0151808D01*
X0182941Y0151962D01*
X0182935Y0152117D01*
X0182933Y0152271D01*
X0182933Y0032271D02*
X0182935Y0032425D01*
X0182941Y0032580D01*
X0182951Y0032734D01*
X0182965Y0032888D01*
X0182983Y0033041D01*
X0183004Y0033194D01*
X0183030Y0033347D01*
X0183060Y0033498D01*
X0183093Y0033649D01*
X0183131Y0033799D01*
X0183172Y0033948D01*
X0183217Y0034096D01*
X0183266Y0034242D01*
X0183319Y0034388D01*
X0183375Y0034531D01*
X0183435Y0034674D01*
X0183499Y0034814D01*
X0183566Y0034954D01*
X0183637Y0035091D01*
X0183711Y0035226D01*
X0183789Y0035360D01*
X0183870Y0035491D01*
X0183955Y0035620D01*
X0184043Y0035748D01*
X0184134Y0035872D01*
X0184228Y0035995D01*
X0184326Y0036115D01*
X0184426Y0036232D01*
X0184530Y0036347D01*
X0184636Y0036459D01*
X0184745Y0036568D01*
X0184857Y0036674D01*
X0184972Y0036778D01*
X0185089Y0036878D01*
X0185209Y0036976D01*
X0185332Y0037070D01*
X0185456Y0037161D01*
X0185584Y0037249D01*
X0185713Y0037334D01*
X0185844Y0037415D01*
X0185978Y0037493D01*
X0186113Y0037567D01*
X0186250Y0037638D01*
X0186390Y0037705D01*
X0186530Y0037769D01*
X0186673Y0037829D01*
X0186816Y0037885D01*
X0186962Y0037938D01*
X0187108Y0037987D01*
X0187256Y0038032D01*
X0187405Y0038073D01*
X0187555Y0038111D01*
X0187706Y0038144D01*
X0187857Y0038174D01*
X0188010Y0038200D01*
X0188163Y0038221D01*
X0188316Y0038239D01*
X0188470Y0038253D01*
X0188624Y0038263D01*
X0188779Y0038269D01*
X0188933Y0038271D01*
X0189087Y0038269D01*
X0189242Y0038263D01*
X0189396Y0038253D01*
X0189550Y0038239D01*
X0189703Y0038221D01*
X0189856Y0038200D01*
X0190009Y0038174D01*
X0190160Y0038144D01*
X0190311Y0038111D01*
X0190461Y0038073D01*
X0190610Y0038032D01*
X0190758Y0037987D01*
X0190904Y0037938D01*
X0191050Y0037885D01*
X0191193Y0037829D01*
X0191336Y0037769D01*
X0191476Y0037705D01*
X0191616Y0037638D01*
X0191753Y0037567D01*
X0191888Y0037493D01*
X0192022Y0037415D01*
X0192153Y0037334D01*
X0192282Y0037249D01*
X0192410Y0037161D01*
X0192534Y0037070D01*
X0192657Y0036976D01*
X0192777Y0036878D01*
X0192894Y0036778D01*
X0193009Y0036674D01*
X0193121Y0036568D01*
X0193230Y0036459D01*
X0193336Y0036347D01*
X0193440Y0036232D01*
X0193540Y0036115D01*
X0193638Y0035995D01*
X0193732Y0035872D01*
X0193823Y0035748D01*
X0193911Y0035620D01*
X0193996Y0035491D01*
X0194077Y0035360D01*
X0194155Y0035226D01*
X0194229Y0035091D01*
X0194300Y0034954D01*
X0194367Y0034814D01*
X0194431Y0034674D01*
X0194491Y0034531D01*
X0194547Y0034388D01*
X0194600Y0034242D01*
X0194649Y0034096D01*
X0194694Y0033948D01*
X0194735Y0033799D01*
X0194773Y0033649D01*
X0194806Y0033498D01*
X0194836Y0033347D01*
X0194862Y0033194D01*
X0194883Y0033041D01*
X0194901Y0032888D01*
X0194915Y0032734D01*
X0194925Y0032580D01*
X0194931Y0032425D01*
X0194933Y0032271D01*
X0194931Y0032117D01*
X0194925Y0031962D01*
X0194915Y0031808D01*
X0194901Y0031654D01*
X0194883Y0031501D01*
X0194862Y0031348D01*
X0194836Y0031195D01*
X0194806Y0031044D01*
X0194773Y0030893D01*
X0194735Y0030743D01*
X0194694Y0030594D01*
X0194649Y0030446D01*
X0194600Y0030300D01*
X0194547Y0030154D01*
X0194491Y0030011D01*
X0194431Y0029868D01*
X0194367Y0029728D01*
X0194300Y0029588D01*
X0194229Y0029451D01*
X0194155Y0029316D01*
X0194077Y0029182D01*
X0193996Y0029051D01*
X0193911Y0028922D01*
X0193823Y0028794D01*
X0193732Y0028670D01*
X0193638Y0028547D01*
X0193540Y0028427D01*
X0193440Y0028310D01*
X0193336Y0028195D01*
X0193230Y0028083D01*
X0193121Y0027974D01*
X0193009Y0027868D01*
X0192894Y0027764D01*
X0192777Y0027664D01*
X0192657Y0027566D01*
X0192534Y0027472D01*
X0192410Y0027381D01*
X0192282Y0027293D01*
X0192153Y0027208D01*
X0192022Y0027127D01*
X0191888Y0027049D01*
X0191753Y0026975D01*
X0191616Y0026904D01*
X0191476Y0026837D01*
X0191336Y0026773D01*
X0191193Y0026713D01*
X0191050Y0026657D01*
X0190904Y0026604D01*
X0190758Y0026555D01*
X0190610Y0026510D01*
X0190461Y0026469D01*
X0190311Y0026431D01*
X0190160Y0026398D01*
X0190009Y0026368D01*
X0189856Y0026342D01*
X0189703Y0026321D01*
X0189550Y0026303D01*
X0189396Y0026289D01*
X0189242Y0026279D01*
X0189087Y0026273D01*
X0188933Y0026271D01*
X0188779Y0026273D01*
X0188624Y0026279D01*
X0188470Y0026289D01*
X0188316Y0026303D01*
X0188163Y0026321D01*
X0188010Y0026342D01*
X0187857Y0026368D01*
X0187706Y0026398D01*
X0187555Y0026431D01*
X0187405Y0026469D01*
X0187256Y0026510D01*
X0187108Y0026555D01*
X0186962Y0026604D01*
X0186816Y0026657D01*
X0186673Y0026713D01*
X0186530Y0026773D01*
X0186390Y0026837D01*
X0186250Y0026904D01*
X0186113Y0026975D01*
X0185978Y0027049D01*
X0185844Y0027127D01*
X0185713Y0027208D01*
X0185584Y0027293D01*
X0185456Y0027381D01*
X0185332Y0027472D01*
X0185209Y0027566D01*
X0185089Y0027664D01*
X0184972Y0027764D01*
X0184857Y0027868D01*
X0184745Y0027974D01*
X0184636Y0028083D01*
X0184530Y0028195D01*
X0184426Y0028310D01*
X0184326Y0028427D01*
X0184228Y0028547D01*
X0184134Y0028670D01*
X0184043Y0028794D01*
X0183955Y0028922D01*
X0183870Y0029051D01*
X0183789Y0029182D01*
X0183711Y0029316D01*
X0183637Y0029451D01*
X0183566Y0029588D01*
X0183499Y0029728D01*
X0183435Y0029868D01*
X0183375Y0030011D01*
X0183319Y0030154D01*
X0183266Y0030300D01*
X0183217Y0030446D01*
X0183172Y0030594D01*
X0183131Y0030743D01*
X0183093Y0030893D01*
X0183060Y0031044D01*
X0183030Y0031195D01*
X0183004Y0031348D01*
X0182983Y0031501D01*
X0182965Y0031654D01*
X0182951Y0031808D01*
X0182941Y0031962D01*
X0182935Y0032117D01*
X0182933Y0032271D01*
M02*
