G75*
%MOIN*%
%OFA0B0*%
%FSLAX25Y25*%
%IPPOS*%
%LPD*%
%AMOC8*
5,1,8,0,0,1.08239X$1,22.5*
%
%ADD10C,0.07800*%
%ADD11R,0.07400X0.07400*%
%ADD12C,0.07400*%
%ADD13C,0.01000*%
%ADD14C,0.03378*%
%ADD15C,0.01600*%
D10*
X0050033Y0057371D02*
X0057833Y0057371D01*
X0057833Y0077171D02*
X0050033Y0077171D01*
X0050033Y0102371D02*
X0057833Y0102371D01*
X0057833Y0122171D02*
X0050033Y0122171D01*
D11*
X0128933Y0037212D03*
D12*
X0138933Y0037212D03*
X0148933Y0037212D03*
D13*
X0040933Y0019271D02*
X0040933Y0112271D01*
X0082898Y0112271D01*
X0083933Y0111236D01*
X0083933Y0091774D01*
X0084314Y0090855D01*
X0085017Y0090152D01*
X0087517Y0087652D01*
X0088436Y0087271D01*
X0116930Y0087271D01*
X0117849Y0087652D01*
X0118552Y0088355D01*
X0121052Y0090855D01*
X0121433Y0091774D01*
X0121433Y0130269D01*
X0121052Y0131187D01*
X0115349Y0136891D01*
X0114430Y0137271D01*
X0041589Y0137271D01*
X0041250Y0137314D01*
X0041096Y0137271D01*
X0040936Y0137271D01*
X0040933Y0137270D01*
X0040933Y0165232D01*
X0201884Y0165232D01*
X0201884Y0019271D01*
X0040933Y0019271D01*
X0040933Y0020267D02*
X0201884Y0020267D01*
X0201884Y0021265D02*
X0192527Y0021265D01*
X0190973Y0020700D02*
X0194808Y0022096D01*
X0197934Y0024719D01*
X0199974Y0028253D01*
X0200683Y0032271D01*
X0199974Y0036290D01*
X0197934Y0039824D01*
X0194808Y0042447D01*
X0190973Y0043843D01*
X0186893Y0043843D01*
X0183058Y0042447D01*
X0179932Y0039824D01*
X0177892Y0036290D01*
X0177183Y0032271D01*
X0177892Y0028253D01*
X0177892Y0028253D01*
X0179932Y0024719D01*
X0179932Y0024719D01*
X0183058Y0022096D01*
X0186893Y0020700D01*
X0190973Y0020700D01*
X0194808Y0022096D02*
X0194808Y0022096D01*
X0195009Y0022264D02*
X0201884Y0022264D01*
X0201884Y0023262D02*
X0196199Y0023262D01*
X0197389Y0024261D02*
X0201884Y0024261D01*
X0201884Y0025259D02*
X0198246Y0025259D01*
X0197934Y0024719D02*
X0197934Y0024719D01*
X0198823Y0026258D02*
X0201884Y0026258D01*
X0201884Y0027256D02*
X0199399Y0027256D01*
X0199974Y0028253D02*
X0199974Y0028253D01*
X0199975Y0028255D02*
X0201884Y0028255D01*
X0201884Y0029253D02*
X0200151Y0029253D01*
X0200327Y0030252D02*
X0201884Y0030252D01*
X0201884Y0031251D02*
X0200503Y0031251D01*
X0200679Y0032249D02*
X0201884Y0032249D01*
X0201884Y0033248D02*
X0200511Y0033248D01*
X0200335Y0034246D02*
X0201884Y0034246D01*
X0201884Y0035245D02*
X0200159Y0035245D01*
X0199983Y0036243D02*
X0201884Y0036243D01*
X0201884Y0037242D02*
X0199425Y0037242D01*
X0199974Y0036290D02*
X0199974Y0036290D01*
X0198849Y0038240D02*
X0201884Y0038240D01*
X0201884Y0039239D02*
X0198272Y0039239D01*
X0197934Y0039824D02*
X0197934Y0039824D01*
X0197934Y0039824D01*
X0197442Y0040237D02*
X0201884Y0040237D01*
X0201884Y0041236D02*
X0196252Y0041236D01*
X0195062Y0042234D02*
X0201884Y0042234D01*
X0201884Y0043233D02*
X0192650Y0043233D01*
X0194808Y0042447D02*
X0194808Y0042447D01*
X0201884Y0044231D02*
X0040933Y0044231D01*
X0040933Y0043233D02*
X0050216Y0043233D01*
X0051893Y0043843D02*
X0048058Y0042447D01*
X0044932Y0039824D01*
X0042892Y0036290D01*
X0042183Y0032271D01*
X0042892Y0028253D01*
X0042892Y0028253D01*
X0044932Y0024719D01*
X0044932Y0024719D01*
X0048058Y0022096D01*
X0051893Y0020700D01*
X0055973Y0020700D01*
X0059808Y0022096D01*
X0062934Y0024719D01*
X0064974Y0028253D01*
X0065683Y0032271D01*
X0064974Y0036290D01*
X0062934Y0039824D01*
X0059808Y0042447D01*
X0055973Y0043843D01*
X0051893Y0043843D01*
X0048058Y0042447D02*
X0048058Y0042447D01*
X0047804Y0042234D02*
X0040933Y0042234D01*
X0040933Y0041236D02*
X0046614Y0041236D01*
X0045424Y0040237D02*
X0040933Y0040237D01*
X0040933Y0039239D02*
X0044594Y0039239D01*
X0044932Y0039824D02*
X0044932Y0039824D01*
X0044018Y0038240D02*
X0040933Y0038240D01*
X0040933Y0037242D02*
X0043441Y0037242D01*
X0042892Y0036290D02*
X0042892Y0036290D01*
X0042883Y0036243D02*
X0040933Y0036243D01*
X0040933Y0035245D02*
X0042707Y0035245D01*
X0042531Y0034246D02*
X0040933Y0034246D01*
X0040933Y0033248D02*
X0042355Y0033248D01*
X0042183Y0032271D02*
X0042183Y0032271D01*
X0042187Y0032249D02*
X0040933Y0032249D01*
X0040933Y0031251D02*
X0042363Y0031251D01*
X0042539Y0030252D02*
X0040933Y0030252D01*
X0040933Y0029253D02*
X0042715Y0029253D01*
X0042891Y0028255D02*
X0040933Y0028255D01*
X0040933Y0027256D02*
X0043467Y0027256D01*
X0044043Y0026258D02*
X0040933Y0026258D01*
X0040933Y0025259D02*
X0044620Y0025259D01*
X0044932Y0024719D02*
X0044932Y0024719D01*
X0045477Y0024261D02*
X0040933Y0024261D01*
X0040933Y0023262D02*
X0046667Y0023262D01*
X0047857Y0022264D02*
X0040933Y0022264D01*
X0040933Y0021265D02*
X0050339Y0021265D01*
X0048058Y0022096D02*
X0048058Y0022096D01*
X0057527Y0021265D02*
X0185339Y0021265D01*
X0183058Y0022096D02*
X0183058Y0022096D01*
X0182857Y0022264D02*
X0060009Y0022264D01*
X0061199Y0023262D02*
X0181667Y0023262D01*
X0180477Y0024261D02*
X0062389Y0024261D01*
X0062934Y0024719D02*
X0062934Y0024719D01*
X0063246Y0025259D02*
X0179620Y0025259D01*
X0179932Y0024719D02*
X0179932Y0024719D01*
X0179043Y0026258D02*
X0063823Y0026258D01*
X0064399Y0027256D02*
X0178467Y0027256D01*
X0177891Y0028255D02*
X0064975Y0028255D01*
X0064974Y0028253D02*
X0064974Y0028253D01*
X0065151Y0029253D02*
X0177715Y0029253D01*
X0177539Y0030252D02*
X0065327Y0030252D01*
X0065503Y0031251D02*
X0177363Y0031251D01*
X0177187Y0032249D02*
X0065679Y0032249D01*
X0065511Y0033248D02*
X0124133Y0033248D01*
X0124133Y0033057D02*
X0124777Y0032412D01*
X0133089Y0032412D01*
X0133733Y0033057D01*
X0133733Y0041368D01*
X0133089Y0042012D01*
X0124777Y0042012D01*
X0124133Y0041368D01*
X0124133Y0033057D01*
X0124133Y0034246D02*
X0065335Y0034246D01*
X0065159Y0035245D02*
X0124133Y0035245D01*
X0124133Y0036243D02*
X0064983Y0036243D01*
X0064974Y0036290D02*
X0064974Y0036290D01*
X0064425Y0037242D02*
X0124133Y0037242D01*
X0124133Y0038240D02*
X0063849Y0038240D01*
X0063272Y0039239D02*
X0124133Y0039239D01*
X0124133Y0040237D02*
X0062442Y0040237D01*
X0062934Y0039824D02*
X0062934Y0039824D01*
X0062934Y0039824D01*
X0061252Y0041236D02*
X0124133Y0041236D01*
X0133733Y0041236D02*
X0136168Y0041236D01*
X0136214Y0041282D02*
X0134864Y0039931D01*
X0134133Y0038167D01*
X0134133Y0036258D01*
X0134864Y0034493D01*
X0136214Y0033143D01*
X0137978Y0032412D01*
X0139888Y0032412D01*
X0141652Y0033143D01*
X0143002Y0034493D01*
X0143733Y0036258D01*
X0143733Y0038167D01*
X0143002Y0039931D01*
X0141652Y0041282D01*
X0139888Y0042012D01*
X0137978Y0042012D01*
X0136214Y0041282D01*
X0135170Y0040237D02*
X0133733Y0040237D01*
X0133733Y0039239D02*
X0134577Y0039239D01*
X0134163Y0038240D02*
X0133733Y0038240D01*
X0133733Y0037242D02*
X0134133Y0037242D01*
X0134139Y0036243D02*
X0133733Y0036243D01*
X0133733Y0035245D02*
X0134553Y0035245D01*
X0135111Y0034246D02*
X0133733Y0034246D01*
X0133733Y0033248D02*
X0136110Y0033248D01*
X0141757Y0033248D02*
X0146110Y0033248D01*
X0146214Y0033143D02*
X0147978Y0032412D01*
X0149888Y0032412D01*
X0151652Y0033143D01*
X0153002Y0034493D01*
X0153733Y0036258D01*
X0153733Y0038167D01*
X0153002Y0039931D01*
X0151652Y0041282D01*
X0149888Y0042012D01*
X0147978Y0042012D01*
X0146214Y0041282D01*
X0144864Y0039931D01*
X0144133Y0038167D01*
X0144133Y0036258D01*
X0144864Y0034493D01*
X0146214Y0033143D01*
X0145111Y0034246D02*
X0142755Y0034246D01*
X0143313Y0035245D02*
X0144553Y0035245D01*
X0144139Y0036243D02*
X0143727Y0036243D01*
X0143733Y0037242D02*
X0144133Y0037242D01*
X0144163Y0038240D02*
X0143703Y0038240D01*
X0143289Y0039239D02*
X0144577Y0039239D01*
X0145170Y0040237D02*
X0142696Y0040237D01*
X0141698Y0041236D02*
X0146168Y0041236D01*
X0151698Y0041236D02*
X0181614Y0041236D01*
X0182804Y0042234D02*
X0060062Y0042234D01*
X0059808Y0042447D02*
X0059808Y0042447D01*
X0057650Y0043233D02*
X0185216Y0043233D01*
X0183058Y0042447D02*
X0183058Y0042447D01*
X0180424Y0040237D02*
X0152696Y0040237D01*
X0153289Y0039239D02*
X0179594Y0039239D01*
X0179932Y0039824D02*
X0179932Y0039824D01*
X0179018Y0038240D02*
X0153703Y0038240D01*
X0153733Y0037242D02*
X0178441Y0037242D01*
X0177892Y0036290D02*
X0177892Y0036290D01*
X0177883Y0036243D02*
X0153727Y0036243D01*
X0153313Y0035245D02*
X0177707Y0035245D01*
X0177531Y0034246D02*
X0152755Y0034246D01*
X0151757Y0033248D02*
X0177355Y0033248D01*
X0177183Y0032271D02*
X0177183Y0032271D01*
X0201884Y0045230D02*
X0040933Y0045230D01*
X0040933Y0046228D02*
X0201884Y0046228D01*
X0201884Y0047227D02*
X0040933Y0047227D01*
X0040933Y0048225D02*
X0201884Y0048225D01*
X0201884Y0049224D02*
X0040933Y0049224D01*
X0040933Y0050222D02*
X0201884Y0050222D01*
X0201884Y0051221D02*
X0040933Y0051221D01*
X0040933Y0052219D02*
X0048415Y0052219D01*
X0048769Y0052104D02*
X0047960Y0052367D01*
X0047203Y0052753D01*
X0046515Y0053252D01*
X0045914Y0053853D01*
X0045415Y0054541D01*
X0045029Y0055298D01*
X0044766Y0056107D01*
X0044645Y0056871D01*
X0053433Y0056871D01*
X0054433Y0056871D01*
X0054433Y0051971D01*
X0058258Y0051971D01*
X0059098Y0052104D01*
X0059906Y0052367D01*
X0060663Y0052753D01*
X0061351Y0053252D01*
X0061952Y0053853D01*
X0062452Y0054541D01*
X0062837Y0055298D01*
X0063100Y0056107D01*
X0063221Y0056871D01*
X0054433Y0056871D01*
X0054433Y0057871D01*
X0063221Y0057871D01*
X0063100Y0058636D01*
X0062837Y0059444D01*
X0062452Y0060202D01*
X0061952Y0060889D01*
X0061351Y0061490D01*
X0060663Y0061990D01*
X0059906Y0062376D01*
X0059098Y0062638D01*
X0058258Y0062771D01*
X0054433Y0062771D01*
X0054433Y0057871D01*
X0053433Y0057871D01*
X0053433Y0056871D01*
X0053433Y0051971D01*
X0049608Y0051971D01*
X0048769Y0052104D01*
X0046563Y0053218D02*
X0040933Y0053218D01*
X0040933Y0054216D02*
X0045651Y0054216D01*
X0045071Y0055215D02*
X0040933Y0055215D01*
X0040933Y0056213D02*
X0044749Y0056213D01*
X0044645Y0057871D02*
X0053433Y0057871D01*
X0053433Y0062771D01*
X0049608Y0062771D01*
X0048769Y0062638D01*
X0047960Y0062376D01*
X0047203Y0061990D01*
X0046515Y0061490D01*
X0045914Y0060889D01*
X0045415Y0060202D01*
X0045029Y0059444D01*
X0044766Y0058636D01*
X0044645Y0057871D01*
X0044699Y0058210D02*
X0040933Y0058210D01*
X0040933Y0057212D02*
X0053433Y0057212D01*
X0053433Y0058210D02*
X0054433Y0058210D01*
X0054433Y0057212D02*
X0201884Y0057212D01*
X0201884Y0058210D02*
X0063167Y0058210D01*
X0062914Y0059209D02*
X0201884Y0059209D01*
X0201884Y0060207D02*
X0062447Y0060207D01*
X0061635Y0061206D02*
X0201884Y0061206D01*
X0201884Y0062204D02*
X0060242Y0062204D01*
X0054433Y0062204D02*
X0053433Y0062204D01*
X0053433Y0061206D02*
X0054433Y0061206D01*
X0054433Y0060207D02*
X0053433Y0060207D01*
X0053433Y0059209D02*
X0054433Y0059209D01*
X0054433Y0056213D02*
X0053433Y0056213D01*
X0053433Y0055215D02*
X0054433Y0055215D01*
X0054433Y0054216D02*
X0053433Y0054216D01*
X0053433Y0053218D02*
X0054433Y0053218D01*
X0054433Y0052219D02*
X0053433Y0052219D01*
X0059451Y0052219D02*
X0201884Y0052219D01*
X0201884Y0053218D02*
X0061303Y0053218D01*
X0062216Y0054216D02*
X0201884Y0054216D01*
X0201884Y0055215D02*
X0062795Y0055215D01*
X0063117Y0056213D02*
X0201884Y0056213D01*
X0201884Y0063203D02*
X0040933Y0063203D01*
X0040933Y0064201D02*
X0201884Y0064201D01*
X0201884Y0065200D02*
X0040933Y0065200D01*
X0040933Y0066198D02*
X0201884Y0066198D01*
X0201884Y0067197D02*
X0040933Y0067197D01*
X0040933Y0068195D02*
X0201884Y0068195D01*
X0201884Y0069194D02*
X0040933Y0069194D01*
X0040933Y0070192D02*
X0201884Y0070192D01*
X0201884Y0071191D02*
X0040933Y0071191D01*
X0040933Y0072189D02*
X0047427Y0072189D01*
X0046861Y0072424D02*
X0048919Y0071571D01*
X0058947Y0071571D01*
X0061005Y0072424D01*
X0062581Y0073999D01*
X0063433Y0076057D01*
X0063433Y0078285D01*
X0062581Y0080343D01*
X0061005Y0081919D01*
X0058947Y0082771D01*
X0048919Y0082771D01*
X0046861Y0081919D01*
X0045286Y0080343D01*
X0044433Y0078285D01*
X0044433Y0076057D01*
X0045286Y0073999D01*
X0046861Y0072424D01*
X0046097Y0073188D02*
X0040933Y0073188D01*
X0040933Y0074187D02*
X0045208Y0074187D01*
X0044794Y0075185D02*
X0040933Y0075185D01*
X0040933Y0076184D02*
X0044433Y0076184D01*
X0044433Y0077182D02*
X0040933Y0077182D01*
X0040933Y0078181D02*
X0044433Y0078181D01*
X0044803Y0079179D02*
X0040933Y0079179D01*
X0040933Y0080178D02*
X0045217Y0080178D01*
X0046118Y0081176D02*
X0040933Y0081176D01*
X0040933Y0082175D02*
X0047478Y0082175D01*
X0040933Y0083173D02*
X0201884Y0083173D01*
X0201884Y0082175D02*
X0060388Y0082175D01*
X0061748Y0081176D02*
X0201884Y0081176D01*
X0201884Y0080178D02*
X0062649Y0080178D01*
X0063063Y0079179D02*
X0201884Y0079179D01*
X0201884Y0078181D02*
X0063433Y0078181D01*
X0063433Y0077182D02*
X0201884Y0077182D01*
X0201884Y0076184D02*
X0063433Y0076184D01*
X0063072Y0075185D02*
X0201884Y0075185D01*
X0201884Y0074187D02*
X0062658Y0074187D01*
X0061769Y0073188D02*
X0201884Y0073188D01*
X0201884Y0072189D02*
X0060439Y0072189D01*
X0047624Y0062204D02*
X0040933Y0062204D01*
X0040933Y0061206D02*
X0046231Y0061206D01*
X0045419Y0060207D02*
X0040933Y0060207D01*
X0040933Y0059209D02*
X0044952Y0059209D01*
X0040933Y0084172D02*
X0201884Y0084172D01*
X0201884Y0085170D02*
X0040933Y0085170D01*
X0040933Y0086169D02*
X0201884Y0086169D01*
X0201884Y0087167D02*
X0040933Y0087167D01*
X0040933Y0088166D02*
X0087003Y0088166D01*
X0086005Y0089164D02*
X0040933Y0089164D01*
X0040933Y0090163D02*
X0085006Y0090163D01*
X0084187Y0091161D02*
X0040933Y0091161D01*
X0040933Y0092160D02*
X0083933Y0092160D01*
X0083933Y0093158D02*
X0040933Y0093158D01*
X0040933Y0094157D02*
X0083933Y0094157D01*
X0083933Y0095155D02*
X0040933Y0095155D01*
X0040933Y0096154D02*
X0083933Y0096154D01*
X0083933Y0097152D02*
X0059867Y0097152D01*
X0058947Y0096771D02*
X0061005Y0097624D01*
X0062581Y0099199D01*
X0063433Y0101257D01*
X0063433Y0103485D01*
X0062581Y0105543D01*
X0061005Y0107119D01*
X0058947Y0107971D01*
X0048919Y0107971D01*
X0046861Y0107119D01*
X0045286Y0105543D01*
X0044433Y0103485D01*
X0044433Y0101257D01*
X0045286Y0099199D01*
X0046861Y0097624D01*
X0048919Y0096771D01*
X0058947Y0096771D01*
X0061532Y0098151D02*
X0083933Y0098151D01*
X0083933Y0099149D02*
X0062531Y0099149D01*
X0062973Y0100148D02*
X0083933Y0100148D01*
X0083933Y0101146D02*
X0063387Y0101146D01*
X0063433Y0102145D02*
X0083933Y0102145D01*
X0083933Y0103143D02*
X0063433Y0103143D01*
X0063161Y0104142D02*
X0083933Y0104142D01*
X0083933Y0105140D02*
X0062748Y0105140D01*
X0061985Y0106139D02*
X0083933Y0106139D01*
X0083933Y0107137D02*
X0060960Y0107137D01*
X0046906Y0107137D02*
X0040933Y0107137D01*
X0040933Y0106139D02*
X0045881Y0106139D01*
X0045119Y0105140D02*
X0040933Y0105140D01*
X0040933Y0104142D02*
X0044705Y0104142D01*
X0044433Y0103143D02*
X0040933Y0103143D01*
X0040933Y0102145D02*
X0044433Y0102145D01*
X0044479Y0101146D02*
X0040933Y0101146D01*
X0040933Y0100148D02*
X0044893Y0100148D01*
X0045336Y0099149D02*
X0040933Y0099149D01*
X0040933Y0098151D02*
X0046334Y0098151D01*
X0048000Y0097152D02*
X0040933Y0097152D01*
X0040933Y0108136D02*
X0083933Y0108136D01*
X0083933Y0109134D02*
X0040933Y0109134D01*
X0040933Y0110133D02*
X0083933Y0110133D01*
X0083933Y0111131D02*
X0040933Y0111131D01*
X0040933Y0112130D02*
X0083039Y0112130D01*
X0059808Y0142096D02*
X0055973Y0140700D01*
X0051893Y0140700D01*
X0048058Y0142096D01*
X0048058Y0142096D01*
X0044932Y0144719D01*
X0044932Y0144719D01*
X0042892Y0148253D01*
X0042892Y0148253D01*
X0042183Y0152271D01*
X0042183Y0152271D01*
X0042892Y0156290D01*
X0042892Y0156290D01*
X0044932Y0159824D01*
X0044932Y0159824D01*
X0048058Y0162447D01*
X0048058Y0162447D01*
X0051893Y0163843D01*
X0055973Y0163843D01*
X0059808Y0162447D01*
X0059808Y0162447D01*
X0062934Y0159824D01*
X0062934Y0159824D01*
X0062934Y0159824D01*
X0064974Y0156290D01*
X0064974Y0156290D01*
X0065683Y0152271D01*
X0065683Y0152271D01*
X0064974Y0148253D01*
X0064974Y0148253D01*
X0062934Y0144719D01*
X0062934Y0144719D01*
X0059808Y0142096D01*
X0059808Y0142096D01*
X0059780Y0142085D02*
X0183086Y0142085D01*
X0183058Y0142096D02*
X0186893Y0140700D01*
X0190973Y0140700D01*
X0194808Y0142096D01*
X0197934Y0144719D01*
X0199974Y0148253D01*
X0200683Y0152271D01*
X0199974Y0156290D01*
X0197934Y0159824D01*
X0194808Y0162447D01*
X0190973Y0163843D01*
X0186893Y0163843D01*
X0183058Y0162447D01*
X0179932Y0159824D01*
X0177892Y0156290D01*
X0177183Y0152271D01*
X0177892Y0148253D01*
X0177892Y0148253D01*
X0179932Y0144719D01*
X0179932Y0144719D01*
X0183058Y0142096D01*
X0183058Y0142096D01*
X0181880Y0143084D02*
X0060986Y0143084D01*
X0062176Y0144082D02*
X0180690Y0144082D01*
X0179932Y0144719D02*
X0179932Y0144719D01*
X0179723Y0145081D02*
X0063143Y0145081D01*
X0063720Y0146079D02*
X0179146Y0146079D01*
X0178570Y0147078D02*
X0064296Y0147078D01*
X0064873Y0148076D02*
X0177993Y0148076D01*
X0177747Y0149075D02*
X0065119Y0149075D01*
X0065295Y0150073D02*
X0177571Y0150073D01*
X0177395Y0151072D02*
X0065472Y0151072D01*
X0065648Y0152070D02*
X0177219Y0152070D01*
X0177183Y0152271D02*
X0177183Y0152271D01*
X0177324Y0153069D02*
X0065542Y0153069D01*
X0065366Y0154067D02*
X0177500Y0154067D01*
X0177676Y0155066D02*
X0065190Y0155066D01*
X0065014Y0156064D02*
X0177852Y0156064D01*
X0177892Y0156290D02*
X0177892Y0156290D01*
X0178338Y0157063D02*
X0064528Y0157063D01*
X0063952Y0158061D02*
X0178914Y0158061D01*
X0179491Y0159060D02*
X0063375Y0159060D01*
X0062655Y0160058D02*
X0180211Y0160058D01*
X0179932Y0159824D02*
X0179932Y0159824D01*
X0181401Y0161057D02*
X0061465Y0161057D01*
X0060275Y0162055D02*
X0182591Y0162055D01*
X0183058Y0162447D02*
X0183058Y0162447D01*
X0184725Y0163054D02*
X0058141Y0163054D01*
X0049725Y0163054D02*
X0040933Y0163054D01*
X0040933Y0162055D02*
X0047591Y0162055D01*
X0046401Y0161057D02*
X0040933Y0161057D01*
X0040933Y0160058D02*
X0045211Y0160058D01*
X0044491Y0159060D02*
X0040933Y0159060D01*
X0040933Y0158061D02*
X0043914Y0158061D01*
X0043338Y0157063D02*
X0040933Y0157063D01*
X0040933Y0156064D02*
X0042852Y0156064D01*
X0042676Y0155066D02*
X0040933Y0155066D01*
X0040933Y0154067D02*
X0042500Y0154067D01*
X0042324Y0153069D02*
X0040933Y0153069D01*
X0040933Y0152070D02*
X0042219Y0152070D01*
X0042395Y0151072D02*
X0040933Y0151072D01*
X0040933Y0150073D02*
X0042571Y0150073D01*
X0042747Y0149075D02*
X0040933Y0149075D01*
X0040933Y0148076D02*
X0042993Y0148076D01*
X0043570Y0147078D02*
X0040933Y0147078D01*
X0040933Y0146079D02*
X0044146Y0146079D01*
X0044723Y0145081D02*
X0040933Y0145081D01*
X0040933Y0144082D02*
X0045690Y0144082D01*
X0044932Y0144719D02*
X0044932Y0144719D01*
X0046880Y0143084D02*
X0040933Y0143084D01*
X0040933Y0142085D02*
X0048086Y0142085D01*
X0050830Y0141087D02*
X0040933Y0141087D01*
X0040933Y0140088D02*
X0201884Y0140088D01*
X0201884Y0139090D02*
X0040933Y0139090D01*
X0040933Y0138091D02*
X0201884Y0138091D01*
X0201884Y0137093D02*
X0114862Y0137093D01*
X0116146Y0136094D02*
X0201884Y0136094D01*
X0201884Y0135096D02*
X0117144Y0135096D01*
X0118143Y0134097D02*
X0201884Y0134097D01*
X0201884Y0133099D02*
X0119141Y0133099D01*
X0120140Y0132100D02*
X0201884Y0132100D01*
X0201884Y0131102D02*
X0121088Y0131102D01*
X0121433Y0130103D02*
X0201884Y0130103D01*
X0201884Y0129105D02*
X0121433Y0129105D01*
X0121433Y0128106D02*
X0201884Y0128106D01*
X0201884Y0127108D02*
X0121433Y0127108D01*
X0121433Y0126109D02*
X0201884Y0126109D01*
X0201884Y0125111D02*
X0121433Y0125111D01*
X0121433Y0124112D02*
X0201884Y0124112D01*
X0201884Y0123114D02*
X0121433Y0123114D01*
X0121433Y0122115D02*
X0201884Y0122115D01*
X0201884Y0121117D02*
X0121433Y0121117D01*
X0121433Y0120118D02*
X0201884Y0120118D01*
X0201884Y0119120D02*
X0121433Y0119120D01*
X0121433Y0118121D02*
X0201884Y0118121D01*
X0201884Y0117122D02*
X0121433Y0117122D01*
X0121433Y0116124D02*
X0201884Y0116124D01*
X0201884Y0115125D02*
X0121433Y0115125D01*
X0121433Y0114127D02*
X0201884Y0114127D01*
X0201884Y0113128D02*
X0121433Y0113128D01*
X0121433Y0112130D02*
X0201884Y0112130D01*
X0201884Y0111131D02*
X0121433Y0111131D01*
X0121433Y0110133D02*
X0201884Y0110133D01*
X0201884Y0109134D02*
X0121433Y0109134D01*
X0121433Y0108136D02*
X0201884Y0108136D01*
X0201884Y0107137D02*
X0121433Y0107137D01*
X0121433Y0106139D02*
X0201884Y0106139D01*
X0201884Y0105140D02*
X0121433Y0105140D01*
X0121433Y0104142D02*
X0201884Y0104142D01*
X0201884Y0103143D02*
X0121433Y0103143D01*
X0121433Y0102145D02*
X0201884Y0102145D01*
X0201884Y0101146D02*
X0121433Y0101146D01*
X0121433Y0100148D02*
X0201884Y0100148D01*
X0201884Y0099149D02*
X0121433Y0099149D01*
X0121433Y0098151D02*
X0201884Y0098151D01*
X0201884Y0097152D02*
X0121433Y0097152D01*
X0121433Y0096154D02*
X0201884Y0096154D01*
X0201884Y0095155D02*
X0121433Y0095155D01*
X0121433Y0094157D02*
X0201884Y0094157D01*
X0201884Y0093158D02*
X0121433Y0093158D01*
X0121433Y0092160D02*
X0201884Y0092160D01*
X0201884Y0091161D02*
X0121179Y0091161D01*
X0120360Y0090163D02*
X0201884Y0090163D01*
X0201884Y0089164D02*
X0119361Y0089164D01*
X0118552Y0088355D02*
X0118552Y0088355D01*
X0118363Y0088166D02*
X0201884Y0088166D01*
X0201884Y0141087D02*
X0192036Y0141087D01*
X0194780Y0142085D02*
X0201884Y0142085D01*
X0201884Y0143084D02*
X0195986Y0143084D01*
X0194808Y0142096D02*
X0194808Y0142096D01*
X0197176Y0144082D02*
X0201884Y0144082D01*
X0201884Y0145081D02*
X0198143Y0145081D01*
X0197934Y0144719D02*
X0197934Y0144719D01*
X0198720Y0146079D02*
X0201884Y0146079D01*
X0201884Y0147078D02*
X0199296Y0147078D01*
X0199873Y0148076D02*
X0201884Y0148076D01*
X0201884Y0149075D02*
X0200119Y0149075D01*
X0199974Y0148253D02*
X0199974Y0148253D01*
X0200295Y0150073D02*
X0201884Y0150073D01*
X0201884Y0151072D02*
X0200472Y0151072D01*
X0200648Y0152070D02*
X0201884Y0152070D01*
X0201884Y0153069D02*
X0200542Y0153069D01*
X0200366Y0154067D02*
X0201884Y0154067D01*
X0201884Y0155066D02*
X0200190Y0155066D01*
X0200014Y0156064D02*
X0201884Y0156064D01*
X0201884Y0157063D02*
X0199528Y0157063D01*
X0199974Y0156290D02*
X0199974Y0156290D01*
X0198952Y0158061D02*
X0201884Y0158061D01*
X0201884Y0159060D02*
X0198375Y0159060D01*
X0197934Y0159824D02*
X0197934Y0159824D01*
X0197934Y0159824D01*
X0197655Y0160058D02*
X0201884Y0160058D01*
X0201884Y0161057D02*
X0196465Y0161057D01*
X0195275Y0162055D02*
X0201884Y0162055D01*
X0201884Y0163054D02*
X0193141Y0163054D01*
X0194808Y0162447D02*
X0194808Y0162447D01*
X0201884Y0164053D02*
X0040933Y0164053D01*
X0040933Y0165051D02*
X0201884Y0165051D01*
X0185830Y0141087D02*
X0057036Y0141087D01*
D14*
X0071433Y0127271D03*
X0071433Y0119771D03*
X0085183Y0119771D03*
X0085183Y0127271D03*
X0083933Y0142271D03*
X0083933Y0147271D03*
X0083933Y0152271D03*
X0083933Y0157271D03*
X0088933Y0157271D03*
X0093933Y0157271D03*
X0098933Y0157271D03*
X0098933Y0152271D03*
X0098933Y0147271D03*
X0098933Y0142271D03*
X0115183Y0127271D03*
X0115183Y0119771D03*
X0115183Y0112271D03*
X0111433Y0104771D03*
X0106433Y0104771D03*
X0101433Y0104771D03*
X0096433Y0104771D03*
X0091433Y0104771D03*
X0093933Y0097271D03*
X0101433Y0097271D03*
X0108933Y0097271D03*
X0123933Y0102271D03*
X0123933Y0112271D03*
X0141433Y0112271D03*
X0141433Y0102271D03*
X0161433Y0103521D03*
X0161433Y0109771D03*
X0178933Y0096021D03*
X0178933Y0083521D03*
X0178933Y0073521D03*
X0167683Y0076021D03*
X0167683Y0083521D03*
X0155183Y0083521D03*
X0155433Y0076021D03*
X0158933Y0062271D03*
X0168933Y0062271D03*
X0178933Y0057271D03*
X0178933Y0047271D03*
X0193933Y0047271D03*
X0193933Y0057271D03*
X0193933Y0067271D03*
X0193933Y0077271D03*
X0193933Y0087271D03*
X0193933Y0097271D03*
X0193933Y0107271D03*
X0193933Y0117271D03*
X0193933Y0127271D03*
X0193933Y0137271D03*
X0181433Y0132271D03*
X0181433Y0128521D03*
X0177683Y0137271D03*
X0163933Y0132271D03*
X0163933Y0127271D03*
X0158933Y0137271D03*
X0146433Y0132271D03*
X0146433Y0128521D03*
X0143933Y0137271D03*
X0143933Y0152271D03*
X0133933Y0152271D03*
X0118933Y0152271D03*
X0123933Y0137271D03*
X0158933Y0152271D03*
X0073933Y0152271D03*
X0119183Y0073771D03*
X0118933Y0069521D03*
X0111433Y0062271D03*
X0103933Y0062271D03*
X0103933Y0054771D03*
X0096433Y0047271D03*
X0088933Y0047271D03*
X0088933Y0054771D03*
X0088933Y0062271D03*
X0068933Y0052271D03*
X0068933Y0037271D03*
X0083933Y0037271D03*
X0096433Y0037271D03*
X0097683Y0022271D03*
X0088933Y0022271D03*
X0073933Y0022271D03*
X0113933Y0021021D03*
X0122683Y0032271D03*
X0135183Y0032271D03*
X0143933Y0032271D03*
X0152683Y0032271D03*
X0158933Y0032271D03*
X0163933Y0021021D03*
X0161433Y0047271D03*
X0152683Y0047271D03*
X0143933Y0047271D03*
X0135183Y0047271D03*
X0123933Y0047271D03*
X0132933Y0059521D03*
X0137933Y0059521D03*
X0132183Y0064521D03*
X0131683Y0069271D03*
X0131433Y0074021D03*
D15*
X0116433Y0089771D02*
X0088933Y0089771D01*
X0086433Y0092271D01*
X0086433Y0112271D01*
X0083933Y0114771D01*
X0041233Y0114771D01*
X0041233Y0133171D01*
X0041433Y0134771D01*
X0113933Y0134771D01*
X0118933Y0129771D01*
X0118933Y0092271D01*
X0116433Y0089771D01*
X0117465Y0090803D02*
X0087902Y0090803D01*
X0086433Y0092401D02*
X0118933Y0092401D01*
X0118933Y0094000D02*
X0086433Y0094000D01*
X0086433Y0095598D02*
X0118933Y0095598D01*
X0118933Y0097197D02*
X0086433Y0097197D01*
X0086433Y0098795D02*
X0118933Y0098795D01*
X0118933Y0100394D02*
X0086433Y0100394D01*
X0086433Y0101992D02*
X0118933Y0101992D01*
X0118933Y0103591D02*
X0086433Y0103591D01*
X0086433Y0105189D02*
X0118933Y0105189D01*
X0118933Y0106788D02*
X0086433Y0106788D01*
X0086433Y0108387D02*
X0118933Y0108387D01*
X0118933Y0109985D02*
X0086433Y0109985D01*
X0086433Y0111584D02*
X0118933Y0111584D01*
X0118933Y0113182D02*
X0085522Y0113182D01*
X0063393Y0120837D02*
X0063115Y0119983D01*
X0062708Y0119184D01*
X0062181Y0118458D01*
X0061546Y0117824D01*
X0060821Y0117296D01*
X0060021Y0116889D01*
X0059168Y0116612D01*
X0058282Y0116471D01*
X0054433Y0116471D01*
X0054433Y0121671D01*
X0053433Y0121671D01*
X0053433Y0116471D01*
X0049584Y0116471D01*
X0048698Y0116612D01*
X0047845Y0116889D01*
X0047046Y0117296D01*
X0046320Y0117824D01*
X0045685Y0118458D01*
X0045158Y0119184D01*
X0044751Y0119983D01*
X0044473Y0120837D01*
X0044341Y0121671D01*
X0053433Y0121671D01*
X0053433Y0122671D01*
X0044341Y0122671D01*
X0044473Y0123506D01*
X0044751Y0124359D01*
X0045158Y0125159D01*
X0045685Y0125885D01*
X0046320Y0126519D01*
X0047046Y0127046D01*
X0047845Y0127454D01*
X0048698Y0127731D01*
X0049584Y0127871D01*
X0053433Y0127871D01*
X0053433Y0122671D01*
X0054433Y0122671D01*
X0063525Y0122671D01*
X0063393Y0123506D01*
X0063115Y0124359D01*
X0062708Y0125159D01*
X0062181Y0125885D01*
X0061546Y0126519D01*
X0060821Y0127046D01*
X0060021Y0127454D01*
X0059168Y0127731D01*
X0058282Y0127871D01*
X0054433Y0127871D01*
X0054433Y0122671D01*
X0054433Y0121671D01*
X0063525Y0121671D01*
X0063393Y0120837D01*
X0063446Y0121175D02*
X0118933Y0121175D01*
X0118933Y0122773D02*
X0063509Y0122773D01*
X0063109Y0124372D02*
X0118933Y0124372D01*
X0118933Y0125970D02*
X0062095Y0125970D01*
X0059667Y0127569D02*
X0118933Y0127569D01*
X0118933Y0129167D02*
X0041233Y0129167D01*
X0041233Y0127569D02*
X0048199Y0127569D01*
X0045771Y0125970D02*
X0041233Y0125970D01*
X0041233Y0124372D02*
X0044757Y0124372D01*
X0044357Y0122773D02*
X0041233Y0122773D01*
X0041233Y0121175D02*
X0044420Y0121175D01*
X0044958Y0119576D02*
X0041233Y0119576D01*
X0041233Y0117978D02*
X0046166Y0117978D01*
X0041233Y0116379D02*
X0118933Y0116379D01*
X0118933Y0114781D02*
X0041233Y0114781D01*
X0053433Y0117978D02*
X0054433Y0117978D01*
X0054433Y0119576D02*
X0053433Y0119576D01*
X0053433Y0121175D02*
X0054433Y0121175D01*
X0054433Y0122773D02*
X0053433Y0122773D01*
X0053433Y0124372D02*
X0054433Y0124372D01*
X0054433Y0125970D02*
X0053433Y0125970D01*
X0053433Y0127569D02*
X0054433Y0127569D01*
X0062908Y0119576D02*
X0118933Y0119576D01*
X0118933Y0117978D02*
X0061700Y0117978D01*
X0041233Y0130766D02*
X0117939Y0130766D01*
X0116340Y0132364D02*
X0041233Y0132364D01*
X0041332Y0133963D02*
X0114742Y0133963D01*
M02*
