G75*
%MOIN*%
%OFA0B0*%
%FSLAX25Y25*%
%IPPOS*%
%LPD*%
%AMOC8*
5,1,8,0,0,1.08239X$1,22.5*
%
%ADD10C,0.00500*%
%ADD11C,0.00700*%
%ADD12C,0.00800*%
%ADD13R,0.81580X0.00241*%
%ADD14R,0.84467X0.00241*%
%ADD15R,0.85911X0.00241*%
%ADD16R,0.87356X0.00241*%
%ADD17R,0.87837X0.00241*%
%ADD18R,0.88799X0.00241*%
%ADD19R,0.89762X0.00241*%
%ADD20R,0.90243X0.00241*%
%ADD21R,0.91206X0.00241*%
%ADD22R,0.91687X0.00241*%
%ADD23R,0.92168X0.00241*%
%ADD24R,0.92650X0.00241*%
%ADD25R,0.93131X0.00241*%
%ADD26R,0.93612X0.00241*%
%ADD27R,0.94093X0.00241*%
%ADD28R,0.94575X0.00241*%
%ADD29R,0.94575X0.00241*%
%ADD30R,0.95056X0.00241*%
%ADD31R,0.04091X0.00241*%
%ADD32R,0.01685X0.00241*%
%ADD33R,0.03850X0.00241*%
%ADD34R,0.01444X0.00241*%
%ADD35R,0.02166X0.00241*%
%ADD36R,0.01203X0.00241*%
%ADD37R,0.02647X0.00241*%
%ADD38R,0.06016X0.00241*%
%ADD39R,0.01925X0.00241*%
%ADD40R,0.05054X0.00241*%
%ADD41R,0.09867X0.00241*%
%ADD42R,0.46205X0.00241*%
%ADD43R,0.03850X0.00241*%
%ADD44R,0.01203X0.00241*%
%ADD45R,0.00481X0.00241*%
%ADD46R,0.00481X0.00241*%
%ADD47R,0.01444X0.00241*%
%ADD48R,0.02888X0.00241*%
%ADD49R,0.01204X0.00241*%
%ADD50R,0.01444X0.00241*%
%ADD51R,0.03128X0.00241*%
%ADD52R,0.01685X0.00241*%
%ADD53R,0.45242X0.00241*%
%ADD54R,0.00722X0.00241*%
%ADD55R,0.00962X0.00241*%
%ADD56R,0.00963X0.00241*%
%ADD57R,0.02647X0.00241*%
%ADD58R,0.00722X0.00241*%
%ADD59R,0.01444X0.00241*%
%ADD60R,0.00241X0.00241*%
%ADD61R,0.45242X0.00241*%
%ADD62R,0.04091X0.00241*%
%ADD63R,0.00722X0.00241*%
%ADD64R,0.00722X0.00241*%
%ADD65R,0.00963X0.00241*%
%ADD66R,0.00241X0.00241*%
%ADD67R,0.02407X0.00241*%
%ADD68R,0.02647X0.00241*%
%ADD69R,0.45001X0.00241*%
%ADD70R,0.04332X0.00241*%
%ADD71R,0.01204X0.00241*%
%ADD72R,0.02407X0.00241*%
%ADD73R,0.45001X0.00241*%
%ADD74R,0.04572X0.00241*%
%ADD75R,0.04813X0.00241*%
%ADD76R,0.03609X0.00241*%
%ADD77R,0.04572X0.00241*%
%ADD78R,0.00481X0.00241*%
%ADD79R,0.00481X0.00241*%
%ADD80R,0.04813X0.00241*%
%ADD81R,0.03609X0.00241*%
%ADD82R,0.45242X0.00241*%
%ADD83R,0.00962X0.00241*%
%ADD84R,0.00241X0.00241*%
%ADD85R,0.02647X0.00241*%
%ADD86R,0.01925X0.00241*%
%ADD87R,0.04813X0.00241*%
%ADD88R,0.00481X0.00241*%
%ADD89R,0.00241X0.00241*%
%ADD90R,0.00481X0.00241*%
%ADD91R,0.01444X0.00241*%
%ADD92R,0.00722X0.00241*%
%ADD93R,0.01685X0.00241*%
%ADD94R,0.00722X0.00241*%
%ADD95R,0.02407X0.00241*%
%ADD96R,0.01444X0.00241*%
%ADD97R,0.02647X0.00241*%
%ADD98R,0.01204X0.00241*%
%ADD99R,0.01203X0.00241*%
%ADD100R,0.03609X0.00241*%
%ADD101R,0.01925X0.00241*%
%ADD102R,0.45242X0.00241*%
%ADD103R,0.04813X0.00241*%
%ADD104R,0.00241X0.00241*%
%ADD105R,0.00241X0.00241*%
%ADD106R,0.02647X0.00241*%
%ADD107R,0.00722X0.00241*%
%ADD108R,0.01444X0.00241*%
%ADD109R,0.00722X0.00241*%
%ADD110R,0.01444X0.00241*%
%ADD111R,0.02407X0.00241*%
%ADD112R,0.01204X0.00241*%
%ADD113R,0.01203X0.00241*%
%ADD114R,0.03369X0.00241*%
%ADD115R,0.01925X0.00241*%
%ADD116R,0.45242X0.00241*%
%ADD117R,0.00241X0.00241*%
%ADD118R,0.00962X0.00241*%
%ADD119R,0.00962X0.00241*%
%ADD120R,0.00963X0.00241*%
%ADD121R,0.05054X0.00241*%
%ADD122R,0.00963X0.00241*%
%ADD123R,0.02647X0.00241*%
%ADD124R,0.45483X0.00241*%
%ADD125R,0.05054X0.00241*%
%ADD126R,0.02888X0.00241*%
%ADD127R,0.02406X0.00241*%
%ADD128R,0.03609X0.00241*%
%ADD129R,0.45483X0.00241*%
%ADD130R,0.03129X0.00241*%
%ADD131R,0.02166X0.00241*%
%ADD132R,0.07219X0.00241*%
%ADD133R,0.14198X0.00241*%
%ADD134R,0.08663X0.00241*%
%ADD135R,0.07219X0.00241*%
%ADD136R,0.14198X0.00241*%
%ADD137R,0.08663X0.00241*%
%ADD138R,0.05294X0.00241*%
%ADD139R,0.06738X0.00241*%
%ADD140R,0.06979X0.00241*%
%ADD141R,0.45723X0.00241*%
%ADD142R,0.05294X0.00241*%
%ADD143R,0.06498X0.00241*%
%ADD144R,0.06738X0.00241*%
%ADD145R,0.45723X0.00241*%
%ADD146R,0.01685X0.00241*%
%ADD147R,0.07460X0.00241*%
%ADD148R,0.06498X0.00241*%
%ADD149R,0.06738X0.00241*%
%ADD150R,0.09145X0.00241*%
%ADD151R,0.02166X0.00241*%
%ADD152R,0.45964X0.00241*%
%ADD153R,0.05776X0.00241*%
%ADD154R,0.02166X0.00241*%
%ADD155R,0.07941X0.00241*%
%ADD156R,0.06979X0.00241*%
%ADD157R,0.09385X0.00241*%
%ADD158R,0.02406X0.00241*%
%ADD159R,0.45964X0.00241*%
%ADD160R,0.98425X0.00241*%
%ADD161R,0.98425X0.00241*%
%ADD162R,0.04091X0.00241*%
%ADD163R,0.11310X0.00241*%
%ADD164R,0.06257X0.00241*%
%ADD165R,0.11310X0.00241*%
%ADD166R,0.06257X0.00241*%
%ADD167R,0.03369X0.00241*%
%ADD168R,0.11070X0.00241*%
%ADD169R,0.01684X0.00241*%
%ADD170R,0.03369X0.00241*%
%ADD171R,0.11070X0.00241*%
%ADD172R,0.06017X0.00241*%
%ADD173R,0.01684X0.00241*%
%ADD174R,0.03128X0.00241*%
%ADD175R,0.03369X0.00241*%
%ADD176R,0.06017X0.00241*%
%ADD177R,0.00481X0.00241*%
%ADD178R,0.03129X0.00241*%
%ADD179R,0.03128X0.00241*%
%ADD180R,0.02888X0.00241*%
%ADD181R,0.05776X0.00241*%
%ADD182R,0.00481X0.00241*%
%ADD183R,0.05535X0.00241*%
%ADD184R,0.05535X0.00241*%
%ADD185R,0.02166X0.00241*%
%ADD186R,0.03369X0.00241*%
%ADD187R,0.11310X0.00241*%
%ADD188R,0.05535X0.00241*%
%ADD189R,0.00241X0.00241*%
%ADD190R,0.03128X0.00241*%
%ADD191R,0.02166X0.00241*%
%ADD192R,0.03369X0.00241*%
%ADD193R,0.02888X0.00241*%
%ADD194R,0.11310X0.00241*%
%ADD195R,0.11551X0.00241*%
%ADD196R,0.05776X0.00241*%
%ADD197R,0.01684X0.00241*%
%ADD198R,0.03610X0.00241*%
%ADD199R,0.03129X0.00241*%
%ADD200R,0.02406X0.00241*%
%ADD201R,0.12032X0.00241*%
%ADD202R,0.27434X0.00241*%
%ADD203R,0.08904X0.00241*%
%ADD204R,0.07941X0.00241*%
%ADD205R,0.26712X0.00241*%
%ADD206R,0.27434X0.00241*%
%ADD207R,0.08904X0.00241*%
%ADD208R,0.07941X0.00241*%
%ADD209R,0.26952X0.00241*%
%ADD210R,0.01684X0.00241*%
%ADD211R,0.27193X0.00241*%
%ADD212R,0.27434X0.00241*%
%ADD213R,0.27675X0.00241*%
%ADD214R,0.09385X0.00241*%
%ADD215R,0.08663X0.00241*%
%ADD216R,0.02406X0.00241*%
%ADD217R,0.27915X0.00241*%
%ADD218R,0.98425X0.00241*%
%ADD219R,0.98425X0.00241*%
%ADD220R,0.38022X0.00241*%
%ADD221R,0.06257X0.00241*%
%ADD222R,0.37060X0.00241*%
%ADD223R,0.05294X0.00241*%
%ADD224R,0.36579X0.00241*%
%ADD225R,0.36338X0.00241*%
%ADD226R,0.04572X0.00241*%
%ADD227R,0.36097X0.00241*%
%ADD228R,0.04331X0.00241*%
%ADD229R,0.35857X0.00241*%
%ADD230R,0.04091X0.00241*%
%ADD231R,0.35857X0.00241*%
%ADD232R,0.03850X0.00241*%
%ADD233R,0.35616X0.00241*%
%ADD234R,0.03850X0.00241*%
%ADD235R,0.35616X0.00241*%
%ADD236R,0.05535X0.00241*%
%ADD237R,0.02166X0.00241*%
%ADD238R,0.03610X0.00241*%
%ADD239R,0.12032X0.00241*%
%ADD240R,0.11792X0.00241*%
%ADD241R,0.02647X0.00241*%
%ADD242R,0.11792X0.00241*%
%ADD243R,0.05294X0.00241*%
%ADD244R,0.11792X0.00241*%
%ADD245R,0.05294X0.00241*%
%ADD246R,0.12273X0.00241*%
%ADD247R,0.02166X0.00241*%
%ADD248R,0.15161X0.00241*%
%ADD249R,0.15161X0.00241*%
%ADD250R,0.14920X0.00241*%
%ADD251R,0.14920X0.00241*%
%ADD252R,0.14680X0.00241*%
%ADD253R,0.14680X0.00241*%
%ADD254R,0.14439X0.00241*%
%ADD255R,0.11792X0.00241*%
%ADD256R,0.12032X0.00241*%
%ADD257R,0.24787X0.00241*%
%ADD258R,0.24787X0.00241*%
%ADD259R,0.25028X0.00241*%
%ADD260R,0.25268X0.00241*%
%ADD261R,0.25268X0.00241*%
%ADD262R,0.25749X0.00241*%
%ADD263R,0.26712X0.00241*%
%ADD264R,0.36097X0.00241*%
%ADD265R,0.04331X0.00241*%
%ADD266R,0.36338X0.00241*%
%ADD267R,0.37782X0.00241*%
%ADD268R,0.06016X0.00241*%
%ADD269R,0.38263X0.00241*%
%ADD270R,0.37301X0.00241*%
%ADD271R,0.36819X0.00241*%
%ADD272R,0.04572X0.00241*%
%ADD273R,0.36579X0.00241*%
%ADD274R,0.36097X0.00241*%
%ADD275R,0.36097X0.00241*%
%ADD276R,0.03369X0.00241*%
%ADD277R,0.04331X0.00241*%
%ADD278R,0.03129X0.00241*%
%ADD279R,0.04331X0.00241*%
%ADD280R,0.10589X0.00241*%
%ADD281R,0.10589X0.00241*%
%ADD282R,0.03610X0.00241*%
%ADD283R,0.10829X0.00241*%
%ADD284R,0.07220X0.00241*%
%ADD285R,0.22380X0.00241*%
%ADD286R,0.12995X0.00241*%
%ADD287R,0.35857X0.00241*%
%ADD288R,0.35857X0.00241*%
%ADD289R,0.03610X0.00241*%
%ADD290R,0.36338X0.00241*%
%ADD291R,0.36338X0.00241*%
%ADD292R,0.36819X0.00241*%
%ADD293R,0.96019X0.00241*%
%ADD294R,0.95537X0.00241*%
%ADD295R,0.95537X0.00241*%
%ADD296R,0.95056X0.00241*%
%ADD297R,0.94093X0.00241*%
%ADD298R,0.93612X0.00241*%
%ADD299R,0.93131X0.00241*%
%ADD300R,0.92650X0.00241*%
%ADD301R,0.92168X0.00241*%
%ADD302R,0.91687X0.00241*%
%ADD303R,0.91206X0.00241*%
%ADD304R,0.90243X0.00241*%
%ADD305R,0.89762X0.00241*%
%ADD306R,0.88799X0.00241*%
%ADD307R,0.87837X0.00241*%
%ADD308R,0.87356X0.00241*%
%ADD309R,0.85911X0.00241*%
%ADD310R,0.84467X0.00241*%
%ADD311R,0.81580X0.00241*%
%ADD312R,0.00413X0.00138*%
%ADD313R,0.39232X0.00138*%
%ADD314R,0.39232X0.00138*%
%ADD315R,0.03854X0.00138*%
%ADD316R,0.34277X0.00138*%
%ADD317R,0.03441X0.00138*%
%ADD318R,0.33864X0.00138*%
%ADD319R,0.03166X0.00138*%
%ADD320R,0.33726X0.00138*%
%ADD321R,0.03028X0.00138*%
%ADD322R,0.33451X0.00138*%
%ADD323R,0.02891X0.00138*%
%ADD324R,0.33313X0.00138*%
%ADD325R,0.02753X0.00138*%
%ADD326R,0.00138X0.00138*%
%ADD327R,0.33176X0.00138*%
%ADD328R,0.02615X0.00138*%
%ADD329R,0.00413X0.00138*%
%ADD330R,0.33038X0.00138*%
%ADD331R,0.02478X0.00138*%
%ADD332R,0.00551X0.00138*%
%ADD333R,0.00688X0.00138*%
%ADD334R,0.33038X0.00138*%
%ADD335R,0.02478X0.00138*%
%ADD336R,0.00689X0.00138*%
%ADD337R,0.00826X0.00138*%
%ADD338R,0.32900X0.00138*%
%ADD339R,0.02340X0.00138*%
%ADD340R,0.00826X0.00138*%
%ADD341R,0.00963X0.00138*%
%ADD342R,0.32900X0.00138*%
%ADD343R,0.02340X0.00138*%
%ADD344R,0.00964X0.00138*%
%ADD345R,0.01101X0.00138*%
%ADD346R,0.32763X0.00138*%
%ADD347R,0.00964X0.00138*%
%ADD348R,0.01101X0.00138*%
%ADD349R,0.32763X0.00138*%
%ADD350R,0.02202X0.00138*%
%ADD351R,0.01102X0.00138*%
%ADD352R,0.01101X0.00138*%
%ADD353R,0.32763X0.00138*%
%ADD354R,0.02202X0.00138*%
%ADD355R,0.01102X0.00138*%
%ADD356R,0.01239X0.00138*%
%ADD357R,0.02202X0.00138*%
%ADD358R,0.01102X0.00138*%
%ADD359R,0.01239X0.00138*%
%ADD360R,0.32625X0.00138*%
%ADD361R,0.32625X0.00138*%
%ADD362R,0.01239X0.00138*%
%ADD363R,0.32625X0.00138*%
%ADD364R,0.02202X0.00138*%
%ADD365R,0.01102X0.00138*%
%ADD366R,0.01239X0.00138*%
%ADD367R,0.32763X0.00138*%
%ADD368R,0.02615X0.00138*%
%ADD369R,0.00413X0.00138*%
%ADD370R,0.02615X0.00138*%
%ADD371R,0.00138X0.00138*%
%ADD372R,0.00551X0.00138*%
%ADD373R,0.33038X0.00138*%
%ADD374R,0.00551X0.00138*%
%ADD375R,0.02891X0.00138*%
%ADD376R,0.00551X0.00138*%
%ADD377R,0.33313X0.00138*%
%ADD378R,0.03166X0.00138*%
%ADD379R,0.33451X0.00138*%
%ADD380R,0.03441X0.00138*%
%ADD381R,0.34552X0.00138*%
%ADD382R,0.03854X0.00138*%
%ADD383R,0.34690X0.00138*%
%ADD384R,0.39232X0.00138*%
%ADD385R,0.00275X0.00138*%
%ADD386R,0.32900X0.00138*%
%ADD387R,0.00137X0.00138*%
%ADD388R,0.00137X0.00138*%
%ADD389R,0.00137X0.00138*%
%ADD390R,0.00275X0.00138*%
%ADD391R,0.39232X0.00138*%
%ADD392R,0.00963X0.00138*%
%ADD393R,0.02340X0.00138*%
%ADD394R,0.00964X0.00138*%
%ADD395R,0.02340X0.00138*%
%ADD396R,0.00964X0.00138*%
%ADD397R,0.01101X0.00138*%
%ADD398R,0.00963X0.00138*%
%ADD399R,0.02478X0.00138*%
%ADD400R,0.00689X0.00138*%
%ADD401R,0.00413X0.00138*%
%ADD402R,0.00826X0.00138*%
%ADD403R,0.32900X0.00138*%
%ADD404R,0.33038X0.00138*%
%ADD405R,0.02753X0.00138*%
%ADD406R,0.33176X0.00138*%
%ADD407R,0.02891X0.00138*%
%ADD408R,0.33313X0.00138*%
%ADD409R,0.03166X0.00138*%
%ADD410R,0.33451X0.00138*%
%ADD411R,0.34552X0.00138*%
%ADD412R,0.03854X0.00138*%
%ADD413R,0.34690X0.00138*%
%ADD414R,0.34277X0.00138*%
%ADD415R,0.33726X0.00138*%
%ADD416R,0.02753X0.00138*%
%ADD417R,0.33176X0.00138*%
%ADD418R,0.01377X0.00138*%
%ADD419R,0.01790X0.00138*%
%ADD420R,0.02478X0.00138*%
%ADD421R,0.02203X0.00138*%
%ADD422R,0.02478X0.00138*%
%ADD423R,0.02891X0.00138*%
%ADD424R,0.03029X0.00138*%
%ADD425R,0.03029X0.00138*%
%ADD426R,0.03029X0.00138*%
%ADD427R,0.32625X0.00138*%
%ADD428R,0.02065X0.00138*%
%ADD429R,0.01790X0.00138*%
%ADD430R,0.02615X0.00138*%
%ADD431R,0.01652X0.00138*%
%ADD432R,0.01652X0.00138*%
%ADD433R,0.36342X0.00138*%
%ADD434R,0.36204X0.00138*%
%ADD435R,0.36204X0.00138*%
%ADD436R,0.36204X0.00138*%
%ADD437R,0.36204X0.00138*%
%ADD438R,0.36342X0.00138*%
%ADD439R,0.36479X0.00138*%
%ADD440R,0.35103X0.00138*%
%ADD441R,0.35516X0.00138*%
%ADD442R,0.35791X0.00138*%
%ADD443R,0.35929X0.00138*%
%ADD444R,0.36066X0.00138*%
%ADD445R,0.36342X0.00138*%
%ADD446R,0.36617X0.00138*%
%ADD447R,0.03854X0.00138*%
%ADD448R,0.34277X0.00138*%
%ADD449R,0.33864X0.00138*%
%ADD450R,0.03166X0.00138*%
%ADD451R,0.33726X0.00138*%
%ADD452R,0.03028X0.00138*%
%ADD453R,0.00688X0.00138*%
%ADD454R,0.01377X0.00138*%
%ADD455R,0.01927X0.00138*%
%ADD456R,0.02203X0.00138*%
%ADD457R,0.02478X0.00138*%
%ADD458R,0.02891X0.00138*%
%ADD459R,0.03029X0.00138*%
%ADD460R,0.01652X0.00138*%
%ADD461R,0.33589X0.00138*%
%ADD462R,0.03304X0.00138*%
%ADD463R,0.03717X0.00138*%
%ADD464R,0.34139X0.00138*%
%ADD465R,0.34690X0.00138*%
%ADD466R,0.34690X0.00138*%
%ADD467R,0.01376X0.00138*%
%ADD468R,0.34827X0.00138*%
%ADD469R,0.36479X0.00138*%
%ADD470R,0.36479X0.00138*%
%ADD471R,0.36479X0.00138*%
%ADD472R,0.34139X0.00138*%
%ADD473R,0.05093X0.00138*%
%ADD474R,0.05369X0.00138*%
%ADD475R,0.05644X0.00138*%
%ADD476R,0.05781X0.00138*%
%ADD477R,0.05781X0.00138*%
%ADD478R,0.05919X0.00138*%
%ADD479R,0.05919X0.00138*%
%ADD480R,0.05919X0.00138*%
%ADD481R,0.06057X0.00138*%
%ADD482R,0.06057X0.00138*%
%ADD483R,0.06057X0.00138*%
%ADD484R,0.05781X0.00138*%
%ADD485R,0.05369X0.00138*%
%ADD486R,0.04268X0.00138*%
%ADD487R,0.28357X0.00138*%
%ADD488R,0.24641X0.00138*%
%ADD489R,0.01514X0.00138*%
%ADD490R,0.24503X0.00138*%
%ADD491R,0.01514X0.00138*%
%ADD492R,0.24228X0.00138*%
%ADD493R,0.03992X0.00138*%
%ADD494R,0.01514X0.00138*%
%ADD495R,0.01239X0.00138*%
%ADD496R,0.24090X0.00138*%
%ADD497R,0.23952X0.00138*%
%ADD498R,0.03717X0.00138*%
%ADD499R,0.02753X0.00138*%
%ADD500R,0.01652X0.00138*%
%ADD501R,0.23815X0.00138*%
%ADD502R,0.01789X0.00138*%
%ADD503R,0.23815X0.00138*%
%ADD504R,0.03304X0.00138*%
%ADD505R,0.01927X0.00138*%
%ADD506R,0.23677X0.00138*%
%ADD507R,0.03579X0.00138*%
%ADD508R,0.01514X0.00138*%
%ADD509R,0.01927X0.00138*%
%ADD510R,0.23677X0.00138*%
%ADD511R,0.03717X0.00138*%
%ADD512R,0.02891X0.00138*%
%ADD513R,0.02065X0.00138*%
%ADD514R,0.23677X0.00138*%
%ADD515R,0.04130X0.00138*%
%ADD516R,0.02065X0.00138*%
%ADD517R,0.23677X0.00138*%
%ADD518R,0.04267X0.00138*%
%ADD519R,0.04405X0.00138*%
%ADD520R,0.02065X0.00138*%
%ADD521R,0.04680X0.00138*%
%ADD522R,0.04818X0.00138*%
%ADD523R,0.04956X0.00138*%
%ADD524R,0.01927X0.00138*%
%ADD525R,0.05231X0.00138*%
%ADD526R,0.23815X0.00138*%
%ADD527R,0.05369X0.00138*%
%ADD528R,0.01377X0.00138*%
%ADD529R,0.01789X0.00138*%
%ADD530R,0.23815X0.00138*%
%ADD531R,0.05506X0.00138*%
%ADD532R,0.01652X0.00138*%
%ADD533R,0.23952X0.00138*%
%ADD534R,0.01652X0.00138*%
%ADD535R,0.01239X0.00138*%
%ADD536R,0.24090X0.00138*%
%ADD537R,0.07571X0.00138*%
%ADD538R,0.24503X0.00138*%
%ADD539R,0.07571X0.00138*%
%ADD540R,0.24778X0.00138*%
%ADD541R,0.07709X0.00138*%
%ADD542R,0.31524X0.00138*%
%ADD543R,0.39370X0.00138*%
%ADD544R,0.39370X0.00138*%
%ADD545R,0.39370X0.00138*%
D10*
X0089005Y0107521D02*
X0089005Y0109857D01*
X0087838Y0109857D02*
X0089005Y0108689D01*
X0090353Y0108689D02*
X0092688Y0108689D01*
X0092688Y0108105D02*
X0092688Y0109273D01*
X0092105Y0109857D01*
X0090937Y0109857D01*
X0090353Y0109273D01*
X0090353Y0108689D01*
X0090937Y0107521D02*
X0092105Y0107521D01*
X0092688Y0108105D01*
X0093976Y0107521D02*
X0095144Y0107521D01*
X0094560Y0107521D02*
X0094560Y0111024D01*
X0095144Y0111024D01*
X0096492Y0109273D02*
X0097075Y0109857D01*
X0098243Y0109857D01*
X0098827Y0109273D01*
X0098827Y0108105D01*
X0098243Y0107521D01*
X0097075Y0107521D01*
X0096492Y0108105D01*
X0096492Y0109273D01*
X0100145Y0109857D02*
X0100729Y0109857D01*
X0101896Y0108689D01*
X0101896Y0107521D02*
X0101896Y0109857D01*
X0103184Y0109857D02*
X0104352Y0109857D01*
X0103768Y0110441D02*
X0103768Y0108105D01*
X0103184Y0107521D01*
X0105699Y0107521D02*
X0105699Y0109273D01*
X0106283Y0109857D01*
X0108035Y0109857D01*
X0108035Y0107521D01*
X0109383Y0108105D02*
X0109383Y0109273D01*
X0109966Y0109857D01*
X0111134Y0109857D01*
X0111718Y0109273D01*
X0111718Y0108105D01*
X0111134Y0107521D01*
X0109966Y0107521D01*
X0109383Y0108105D01*
X0113066Y0108105D02*
X0113650Y0107521D01*
X0114817Y0107521D01*
X0115401Y0108105D01*
X0115401Y0110441D01*
X0114817Y0111024D01*
X0113650Y0111024D01*
X0113066Y0110441D01*
X0120432Y0111024D02*
X0120432Y0107521D01*
X0122767Y0107521D02*
X0122767Y0111024D01*
X0121600Y0109857D01*
X0120432Y0111024D01*
X0124115Y0111024D02*
X0124115Y0107521D01*
X0125283Y0108689D01*
X0126450Y0107521D01*
X0126450Y0111024D01*
X0127798Y0110441D02*
X0127798Y0109273D01*
X0128382Y0108689D01*
X0130134Y0108689D01*
X0130134Y0107521D02*
X0130134Y0111024D01*
X0128382Y0111024D01*
X0127798Y0110441D01*
X0135165Y0110441D02*
X0135748Y0111024D01*
X0136916Y0111024D01*
X0137500Y0110441D01*
X0137500Y0108105D01*
X0136916Y0107521D01*
X0135748Y0107521D01*
X0135165Y0108105D01*
X0138848Y0108105D02*
X0138848Y0110441D01*
X0139432Y0111024D01*
X0141183Y0111024D01*
X0141183Y0107521D01*
X0139432Y0107521D01*
X0138848Y0108105D01*
X0087838Y0109857D02*
X0087254Y0109857D01*
D11*
X0135314Y0099208D02*
X0135314Y0098391D01*
X0136131Y0097573D01*
X0138583Y0097573D01*
X0138583Y0095121D02*
X0138583Y0100026D01*
X0136131Y0100026D01*
X0135314Y0099208D01*
X0136131Y0097573D02*
X0135314Y0096756D01*
X0135314Y0095939D01*
X0136131Y0095121D01*
X0138583Y0095121D01*
D12*
X0066686Y0059113D02*
X0066686Y0054976D01*
X0071402Y0057671D02*
X0069333Y0059740D01*
X0071402Y0061808D01*
X0075538Y0061808D01*
X0073470Y0064117D02*
X0073470Y0065151D01*
X0069333Y0065151D01*
X0069333Y0064117D02*
X0069333Y0066185D01*
X0069333Y0068414D02*
X0073470Y0068414D01*
X0073470Y0071516D01*
X0072436Y0072551D01*
X0069333Y0072551D01*
X0066465Y0074956D02*
X0066465Y0079092D01*
X0068533Y0077024D02*
X0064396Y0077024D01*
X0075538Y0065151D02*
X0076573Y0065151D01*
X0075538Y0057671D02*
X0071402Y0057671D01*
X0066465Y0099956D02*
X0066465Y0104092D01*
X0068533Y0102024D02*
X0064396Y0102024D01*
X0069333Y0104740D02*
X0071402Y0106808D01*
X0075538Y0106808D01*
X0072436Y0109117D02*
X0070367Y0109117D01*
X0069333Y0110151D01*
X0069333Y0112220D01*
X0070367Y0113254D01*
X0072436Y0113254D01*
X0073470Y0112220D01*
X0073470Y0110151D01*
X0072436Y0109117D01*
X0069333Y0104740D02*
X0071402Y0102671D01*
X0075538Y0102671D01*
X0073470Y0115562D02*
X0070367Y0115562D01*
X0069333Y0116597D01*
X0069333Y0119699D01*
X0073470Y0119699D01*
X0073470Y0122008D02*
X0073470Y0124076D01*
X0074504Y0123042D02*
X0070367Y0123042D01*
X0069333Y0124076D01*
X0066686Y0124113D02*
X0066686Y0119976D01*
D13*
X0129841Y0072271D03*
D14*
X0129841Y0072512D03*
D15*
X0129841Y0072753D03*
D16*
X0129841Y0072993D03*
D17*
X0129841Y0073234D03*
D18*
X0129841Y0073475D03*
D19*
X0129841Y0073715D03*
D20*
X0129841Y0073956D03*
D21*
X0129841Y0074197D03*
D22*
X0129841Y0074437D03*
D23*
X0129841Y0074678D03*
D24*
X0129841Y0074918D03*
D25*
X0129841Y0075159D03*
D26*
X0129841Y0075400D03*
D27*
X0129841Y0075640D03*
D28*
X0129841Y0075881D03*
X0129841Y0116791D03*
D29*
X0129841Y0117032D03*
X0129841Y0076122D03*
D30*
X0129841Y0076362D03*
D31*
X0175564Y0076603D03*
X0175805Y0077084D03*
D32*
X0172436Y0076603D03*
X0170029Y0086951D03*
X0171473Y0095133D03*
X0167382Y0097539D03*
X0164975Y0096577D03*
X0161847Y0094170D03*
X0159922Y0096577D03*
X0159200Y0086951D03*
X0157034Y0106925D03*
X0157997Y0108369D03*
X0149333Y0107406D03*
X0146445Y0107887D03*
X0093984Y0086951D03*
D33*
X0082554Y0105962D03*
X0082554Y0106443D03*
X0082554Y0106925D03*
X0082554Y0107406D03*
X0082554Y0107887D03*
X0082554Y0108369D03*
X0082554Y0108850D03*
X0082554Y0109331D03*
X0083275Y0115107D03*
X0132127Y0077566D03*
X0148010Y0076603D03*
X0169428Y0076603D03*
D34*
X0166299Y0076603D03*
X0158358Y0077566D03*
X0168224Y0095133D03*
X0167984Y0096577D03*
X0154748Y0107887D03*
X0151860Y0107887D03*
X0146566Y0107406D03*
X0143678Y0107406D03*
X0143678Y0107887D03*
X0140068Y0086951D03*
X0138865Y0077566D03*
D35*
X0142836Y0086951D03*
X0164254Y0076603D03*
X0171232Y0094170D03*
X0171232Y0097058D03*
D36*
X0168104Y0094652D03*
X0167863Y0094170D03*
X0162088Y0095614D03*
X0161366Y0086470D03*
X0159200Y0086470D03*
X0164494Y0086470D03*
X0170029Y0086470D03*
X0172195Y0086470D03*
X0166901Y0077566D03*
X0162088Y0076603D03*
X0160403Y0077084D03*
X0150055Y0086470D03*
X0143076Y0078047D03*
X0143076Y0077566D03*
X0143076Y0077084D03*
X0145002Y0076603D03*
X0140911Y0077084D03*
X0130563Y0077084D03*
X0133450Y0086470D03*
X0121178Y0086951D03*
X0111792Y0087432D03*
X0101204Y0086470D03*
X0149093Y0107887D03*
X0149093Y0108369D03*
X0154868Y0108369D03*
X0169067Y0107887D03*
X0169067Y0107406D03*
X0171954Y0107406D03*
X0171954Y0107887D03*
D37*
X0148130Y0078047D03*
X0148130Y0077566D03*
X0148130Y0077084D03*
X0159922Y0076603D03*
D38*
X0155349Y0076603D03*
D39*
X0151138Y0076603D03*
X0152582Y0086951D03*
X0156914Y0096577D03*
X0159802Y0097058D03*
X0168465Y0095614D03*
X0171353Y0094652D03*
X0166780Y0086951D03*
X0164615Y0086951D03*
X0143919Y0106925D03*
X0154507Y0107406D03*
X0163652Y0108369D03*
X0166299Y0107406D03*
X0136699Y0086951D03*
X0128517Y0078047D03*
X0121539Y0087913D03*
X0116726Y0087913D03*
X0109265Y0086951D03*
X0109265Y0086470D03*
D40*
X0141633Y0076603D03*
D41*
X0133932Y0076603D03*
D42*
X0105174Y0076603D03*
D43*
X0082554Y0105721D03*
X0082554Y0106203D03*
X0082554Y0106684D03*
X0082554Y0107165D03*
X0082554Y0107647D03*
X0082554Y0108128D03*
X0082554Y0108609D03*
X0082554Y0109091D03*
X0082554Y0109572D03*
X0175684Y0076844D03*
D44*
X0172435Y0076844D03*
X0170510Y0076844D03*
X0168585Y0076844D03*
X0164494Y0076844D03*
X0164494Y0086710D03*
X0161366Y0086710D03*
X0161366Y0086229D03*
X0162088Y0095374D03*
X0164976Y0096817D03*
X0167863Y0094411D03*
X0172195Y0086710D03*
X0172195Y0086229D03*
X0171954Y0107647D03*
X0169067Y0107647D03*
X0169067Y0108128D03*
X0154868Y0108128D03*
X0154868Y0108609D03*
X0149093Y0108128D03*
X0149093Y0109572D03*
X0129119Y0088154D03*
X0129359Y0086229D03*
X0121178Y0086710D03*
X0111552Y0088154D03*
X0140189Y0086229D03*
X0143076Y0078288D03*
X0143076Y0077806D03*
X0143076Y0077325D03*
D45*
X0144881Y0076844D03*
X0139828Y0086710D03*
X0136940Y0086229D03*
X0166058Y0076844D03*
X0170390Y0077806D03*
X0170390Y0078288D03*
X0095308Y0086229D03*
D46*
X0093864Y0086710D03*
X0103249Y0086229D03*
X0161967Y0076844D03*
X0162930Y0086229D03*
X0162930Y0086710D03*
X0168465Y0086229D03*
X0172556Y0078288D03*
X0172556Y0077806D03*
D47*
X0160283Y0076844D03*
X0149935Y0086710D03*
X0140790Y0076844D03*
X0124186Y0088154D03*
X0121298Y0087192D03*
X0143678Y0107647D03*
X0146566Y0107647D03*
X0168224Y0094892D03*
X0169187Y0107165D03*
D48*
X0155951Y0076844D03*
D49*
X0153184Y0076844D03*
X0145242Y0077325D03*
X0145242Y0077806D03*
X0145242Y0078288D03*
X0130803Y0077325D03*
X0157034Y0096817D03*
X0157034Y0097299D03*
X0159922Y0095855D03*
X0167623Y0093930D03*
X0166660Y0108609D03*
X0160884Y0108128D03*
D50*
X0163652Y0108128D03*
X0166540Y0108128D03*
X0171834Y0107165D03*
X0167502Y0097299D03*
X0167743Y0096817D03*
X0164855Y0093930D03*
X0159802Y0096336D03*
X0159080Y0086710D03*
X0152341Y0086710D03*
X0151138Y0078288D03*
X0151138Y0077806D03*
X0151138Y0077325D03*
X0151138Y0076844D03*
X0162689Y0077806D03*
X0166780Y0077806D03*
X0166780Y0086710D03*
X0169909Y0086710D03*
X0171593Y0095374D03*
X0157876Y0108128D03*
X0149213Y0107647D03*
X0133571Y0086710D03*
X0119132Y0088154D03*
D51*
X0130322Y0087192D03*
X0130322Y0086710D03*
X0136338Y0076844D03*
X0148130Y0076844D03*
X0105776Y0086710D03*
D52*
X0109386Y0087192D03*
X0097594Y0086710D03*
X0128397Y0077806D03*
X0130563Y0076844D03*
X0143077Y0076844D03*
X0161847Y0093930D03*
X0159922Y0096817D03*
X0157034Y0097780D03*
X0166419Y0107647D03*
X0146445Y0108128D03*
X0146445Y0107165D03*
X0162810Y0078288D03*
D53*
X0104693Y0076844D03*
X0103971Y0077806D03*
X0103971Y0078288D03*
D54*
X0109867Y0087432D03*
X0111552Y0087913D03*
X0129119Y0087913D03*
X0139948Y0086470D03*
X0142595Y0086470D03*
X0141151Y0078047D03*
X0160644Y0078047D03*
X0170510Y0077566D03*
X0170510Y0077084D03*
X0172435Y0077084D03*
X0172435Y0077566D03*
X0168344Y0086951D03*
X0162328Y0096577D03*
X0172195Y0109331D03*
D55*
X0168706Y0078047D03*
X0168706Y0077084D03*
D56*
X0164614Y0077084D03*
X0160523Y0077566D03*
X0162930Y0086951D03*
X0166781Y0086470D03*
X0162208Y0096096D03*
X0162689Y0097058D03*
X0159801Y0095614D03*
X0160764Y0108369D03*
X0154988Y0108850D03*
X0154988Y0109331D03*
X0166781Y0109331D03*
X0168946Y0108850D03*
X0168946Y0108369D03*
X0172075Y0108369D03*
X0172075Y0108850D03*
X0141031Y0077566D03*
X0124186Y0086470D03*
X0124186Y0086951D03*
X0124186Y0087432D03*
X0124186Y0087913D03*
X0121057Y0086470D03*
X0119132Y0086470D03*
X0119132Y0086951D03*
X0119132Y0087432D03*
X0119132Y0087913D03*
X0097473Y0086470D03*
D57*
X0136338Y0077084D03*
X0155831Y0077084D03*
X0170992Y0097539D03*
D58*
X0163772Y0107887D03*
X0160884Y0108850D03*
X0160884Y0109331D03*
X0168826Y0109331D03*
X0159922Y0095133D03*
X0164735Y0078047D03*
X0164735Y0077566D03*
X0168826Y0077566D03*
X0153184Y0077566D03*
X0153184Y0078047D03*
X0153184Y0077084D03*
X0138504Y0086951D03*
D59*
X0146325Y0086470D03*
X0151138Y0078047D03*
X0151138Y0077566D03*
X0151138Y0077084D03*
X0162689Y0078047D03*
X0167743Y0097058D03*
X0162930Y0097539D03*
X0160764Y0107887D03*
X0166540Y0107887D03*
X0149213Y0109331D03*
X0128517Y0077566D03*
D60*
X0144761Y0077084D03*
D61*
X0104452Y0077084D03*
D62*
X0083636Y0115347D03*
X0175805Y0077325D03*
D63*
X0172435Y0077325D03*
X0170510Y0077325D03*
X0166901Y0077325D03*
X0160644Y0077806D03*
X0160644Y0078288D03*
X0158478Y0077325D03*
X0141151Y0077806D03*
X0141151Y0078288D03*
X0135376Y0086229D03*
X0129119Y0087673D03*
X0111552Y0087673D03*
X0099278Y0086229D03*
X0097353Y0086229D03*
X0162328Y0096336D03*
X0172195Y0109091D03*
X0172195Y0109572D03*
D64*
X0168826Y0109572D03*
X0160884Y0109572D03*
X0160884Y0109091D03*
X0157034Y0107165D03*
X0159922Y0095374D03*
X0144280Y0086229D03*
X0153184Y0078288D03*
X0153184Y0077806D03*
X0153184Y0077325D03*
X0164735Y0077806D03*
X0164735Y0078288D03*
X0168826Y0077806D03*
X0168826Y0077325D03*
D65*
X0164614Y0077325D03*
X0160523Y0077325D03*
X0159080Y0086229D03*
X0154026Y0086229D03*
X0152101Y0086229D03*
X0150175Y0086229D03*
X0148251Y0086229D03*
X0146325Y0086229D03*
X0142716Y0086710D03*
X0142234Y0086229D03*
X0136699Y0086710D03*
X0133330Y0086229D03*
X0124186Y0086229D03*
X0124186Y0086710D03*
X0124186Y0087192D03*
X0124186Y0087673D03*
X0121057Y0086229D03*
X0119132Y0086229D03*
X0119132Y0086710D03*
X0119132Y0087192D03*
X0119132Y0087673D03*
X0101324Y0086229D03*
X0138865Y0077325D03*
X0141031Y0077325D03*
X0162208Y0095855D03*
X0162449Y0096817D03*
X0162689Y0097299D03*
X0164614Y0086229D03*
X0166781Y0086229D03*
X0169909Y0086229D03*
X0172075Y0108128D03*
X0172075Y0108609D03*
X0168946Y0108609D03*
X0168946Y0109091D03*
X0166781Y0109091D03*
X0166781Y0109572D03*
X0160764Y0108609D03*
X0154988Y0109091D03*
X0154988Y0109572D03*
D66*
X0170510Y0109572D03*
X0159922Y0094892D03*
X0168345Y0086710D03*
X0162810Y0077325D03*
X0138504Y0086710D03*
X0122621Y0086229D03*
X0095909Y0086710D03*
D67*
X0105896Y0086229D03*
X0121538Y0088154D03*
X0136218Y0077325D03*
X0155710Y0077325D03*
X0156673Y0086229D03*
X0157636Y0093930D03*
X0166058Y0107165D03*
X0171112Y0093930D03*
D68*
X0164735Y0094411D03*
X0159922Y0097780D03*
X0148130Y0078288D03*
X0148130Y0077806D03*
X0148130Y0077325D03*
D69*
X0104332Y0077325D03*
D70*
X0175925Y0077566D03*
D71*
X0166660Y0078047D03*
X0162810Y0077566D03*
X0152221Y0086470D03*
X0145242Y0078047D03*
X0145242Y0077566D03*
X0157034Y0097058D03*
X0157034Y0097539D03*
X0159922Y0096096D03*
X0171714Y0095614D03*
X0166660Y0108369D03*
X0166660Y0108850D03*
X0095669Y0086951D03*
D72*
X0116485Y0087432D03*
X0136218Y0077566D03*
X0155710Y0077566D03*
X0156432Y0086470D03*
X0146566Y0106925D03*
X0151860Y0108369D03*
X0169187Y0106925D03*
D73*
X0104092Y0077566D03*
D74*
X0150777Y0108609D03*
X0150777Y0109091D03*
X0176045Y0078288D03*
X0176045Y0077806D03*
D75*
X0156914Y0077806D03*
X0163652Y0094892D03*
X0137421Y0077806D03*
D76*
X0132247Y0077806D03*
X0132247Y0078288D03*
X0082433Y0093930D03*
X0082433Y0094411D03*
X0082433Y0094892D03*
X0082433Y0095374D03*
X0082433Y0095855D03*
X0082433Y0096336D03*
X0082433Y0096817D03*
X0082433Y0097299D03*
X0082433Y0097780D03*
D77*
X0150777Y0108850D03*
X0176045Y0078047D03*
D78*
X0172556Y0078047D03*
X0162930Y0086470D03*
D79*
X0170390Y0078047D03*
X0136940Y0086470D03*
D80*
X0137421Y0078047D03*
X0156914Y0078047D03*
X0163652Y0094652D03*
D81*
X0132247Y0078047D03*
X0082433Y0094170D03*
X0082433Y0094652D03*
X0082433Y0095133D03*
X0082433Y0095614D03*
X0082433Y0096096D03*
X0082433Y0096577D03*
X0082433Y0097058D03*
X0082433Y0097539D03*
D82*
X0103971Y0078047D03*
D83*
X0168706Y0078288D03*
D84*
X0166179Y0078288D03*
X0093262Y0086229D03*
D85*
X0136338Y0078288D03*
X0155831Y0078288D03*
X0156312Y0086710D03*
X0170992Y0097299D03*
X0170992Y0097780D03*
D86*
X0171353Y0094892D03*
X0162930Y0097780D03*
X0161967Y0094411D03*
X0160764Y0107647D03*
X0151860Y0108128D03*
X0146325Y0086710D03*
X0128517Y0078288D03*
X0116726Y0087673D03*
X0109265Y0086710D03*
X0109265Y0086229D03*
X0101324Y0086710D03*
D87*
X0083035Y0090801D03*
X0083035Y0102112D03*
X0176166Y0079010D03*
X0176166Y0078528D03*
D88*
X0172556Y0078528D03*
X0169909Y0085507D03*
X0166780Y0085507D03*
X0166780Y0085026D03*
X0165577Y0085026D03*
X0162930Y0085988D03*
X0159080Y0085507D03*
X0164855Y0093689D03*
X0168706Y0110294D03*
X0168706Y0110775D03*
X0156914Y0111738D03*
X0146325Y0085507D03*
X0120817Y0085507D03*
X0101324Y0084544D03*
D89*
X0143558Y0079972D03*
X0159200Y0085026D03*
X0160162Y0085507D03*
X0164494Y0085026D03*
X0165697Y0085507D03*
X0170029Y0085026D03*
X0172676Y0079491D03*
X0172676Y0079010D03*
X0171473Y0079010D03*
X0171473Y0078528D03*
X0162810Y0079491D03*
X0162088Y0079972D03*
X0170510Y0109812D03*
X0168585Y0111256D03*
X0168585Y0111738D03*
X0172436Y0111738D03*
X0172436Y0111256D03*
D90*
X0172315Y0110775D03*
X0172315Y0110294D03*
X0171112Y0085026D03*
X0170390Y0078528D03*
X0160283Y0085026D03*
X0158598Y0079491D03*
X0151619Y0079972D03*
X0139828Y0084063D03*
X0139106Y0079491D03*
X0122501Y0085988D03*
X0097233Y0085507D03*
X0097233Y0085026D03*
D91*
X0095308Y0083582D03*
X0093382Y0083582D03*
X0124426Y0084063D03*
X0131164Y0079491D03*
X0135255Y0084544D03*
X0139106Y0079010D03*
X0158598Y0079010D03*
X0160283Y0083582D03*
X0168465Y0079972D03*
X0168465Y0078528D03*
X0171112Y0083582D03*
X0146566Y0111256D03*
X0143678Y0111256D03*
D92*
X0160884Y0109812D03*
X0168826Y0109812D03*
X0150296Y0085988D03*
X0150296Y0085507D03*
X0150296Y0085026D03*
X0150296Y0084544D03*
X0148130Y0084063D03*
X0146205Y0085988D03*
X0153184Y0079491D03*
X0153184Y0079010D03*
X0153184Y0078528D03*
X0164735Y0078528D03*
X0164735Y0079010D03*
X0165697Y0084544D03*
X0120937Y0085988D03*
D93*
X0121899Y0084063D03*
X0126712Y0084544D03*
X0135376Y0085026D03*
X0135376Y0085507D03*
X0137782Y0085507D03*
X0137782Y0085026D03*
X0137782Y0084544D03*
X0160162Y0079972D03*
X0162810Y0078528D03*
X0166901Y0079010D03*
X0167382Y0093208D03*
X0151981Y0110775D03*
X0149333Y0111256D03*
X0146445Y0110775D03*
X0146445Y0111738D03*
X0160884Y0111256D03*
X0166419Y0111256D03*
X0170510Y0112219D03*
X0170510Y0112700D03*
X0109386Y0084544D03*
X0105054Y0083582D03*
X0099279Y0085026D03*
X0099279Y0085507D03*
X0097594Y0083582D03*
D94*
X0097353Y0084544D03*
X0097353Y0085988D03*
X0101204Y0085988D03*
X0093262Y0085988D03*
X0122381Y0085507D03*
X0133210Y0085507D03*
X0133210Y0085026D03*
X0133210Y0084544D03*
X0133210Y0085988D03*
X0139707Y0083582D03*
X0141151Y0079010D03*
X0141151Y0078528D03*
X0145002Y0079972D03*
X0151980Y0085507D03*
X0151980Y0085988D03*
X0153906Y0084063D03*
X0160163Y0084544D03*
X0161366Y0085507D03*
X0161366Y0085988D03*
X0164494Y0085988D03*
X0164494Y0085507D03*
X0168344Y0085988D03*
X0170992Y0084544D03*
X0172195Y0085507D03*
X0172195Y0085988D03*
X0171473Y0079972D03*
X0171473Y0079491D03*
X0160644Y0079010D03*
X0160644Y0078528D03*
X0170510Y0110294D03*
X0170510Y0110775D03*
X0172195Y0109812D03*
D95*
X0166058Y0111738D03*
X0156673Y0085988D03*
X0155710Y0079010D03*
X0155710Y0078528D03*
X0136218Y0078528D03*
X0136218Y0079010D03*
D96*
X0130924Y0081416D03*
X0137662Y0085988D03*
X0144159Y0084544D03*
X0145363Y0080935D03*
X0148250Y0085507D03*
X0148250Y0085988D03*
X0152341Y0083582D03*
X0154026Y0085507D03*
X0154026Y0085988D03*
X0158117Y0083582D03*
X0162930Y0084544D03*
X0162930Y0085026D03*
X0165577Y0083582D03*
X0162689Y0079010D03*
X0171593Y0080935D03*
X0151138Y0078528D03*
X0122020Y0084544D03*
X0119132Y0083582D03*
X0103249Y0084544D03*
X0099399Y0084544D03*
X0149213Y0110775D03*
X0157876Y0110775D03*
X0163652Y0110775D03*
X0166540Y0110775D03*
D97*
X0157034Y0084544D03*
X0148371Y0079491D03*
X0148130Y0079010D03*
X0148130Y0078528D03*
X0137542Y0083582D03*
D98*
X0144280Y0085988D03*
X0146205Y0084063D03*
X0145242Y0080453D03*
X0145242Y0079010D03*
X0145242Y0078528D03*
X0153184Y0079972D03*
X0156071Y0084063D03*
X0157997Y0084063D03*
X0164735Y0079491D03*
X0167623Y0093689D03*
X0166660Y0110294D03*
X0160884Y0110775D03*
X0107220Y0084063D03*
X0105295Y0084063D03*
D99*
X0103129Y0085988D03*
X0101204Y0084063D03*
X0099278Y0085988D03*
X0095428Y0085507D03*
X0095428Y0085026D03*
X0095428Y0084544D03*
X0095428Y0084063D03*
X0093262Y0084063D03*
X0093262Y0084544D03*
X0093262Y0085026D03*
X0093262Y0085507D03*
X0124306Y0084544D03*
X0131044Y0079010D03*
X0135376Y0085988D03*
X0140189Y0085988D03*
X0140189Y0085507D03*
X0140189Y0085026D03*
X0140189Y0084544D03*
X0143076Y0079010D03*
X0143076Y0078528D03*
X0151018Y0079010D03*
X0168344Y0085026D03*
X0171473Y0080453D03*
X0154868Y0110294D03*
X0154868Y0110775D03*
X0149093Y0110294D03*
X0149093Y0109812D03*
X0170510Y0111256D03*
X0170510Y0111738D03*
D100*
X0132247Y0080453D03*
X0132247Y0079972D03*
X0132247Y0078528D03*
X0082433Y0093208D03*
X0082433Y0093689D03*
X0082433Y0098021D03*
X0082433Y0098502D03*
X0082433Y0098983D03*
X0082433Y0099465D03*
X0082433Y0099946D03*
D101*
X0107581Y0083582D03*
X0109265Y0085026D03*
X0109265Y0085507D03*
X0109265Y0085988D03*
X0128517Y0080935D03*
X0128517Y0080453D03*
X0128517Y0079972D03*
X0128517Y0079491D03*
X0128517Y0079010D03*
X0128517Y0078528D03*
X0133571Y0083582D03*
X0137662Y0084063D03*
X0142475Y0083582D03*
X0148010Y0084544D03*
X0149935Y0083582D03*
X0153785Y0084544D03*
X0155711Y0083582D03*
X0162930Y0084063D03*
X0164615Y0079972D03*
X0168465Y0084063D03*
X0143919Y0110775D03*
D102*
X0103731Y0079010D03*
X0103731Y0078528D03*
D103*
X0083035Y0104278D03*
X0176166Y0079250D03*
X0176166Y0078769D03*
D104*
X0172676Y0078769D03*
X0172676Y0079250D03*
X0171473Y0078769D03*
X0170029Y0084785D03*
X0165697Y0085266D03*
X0164494Y0084785D03*
X0160162Y0085266D03*
X0159200Y0084785D03*
X0139707Y0083822D03*
X0120696Y0085266D03*
X0156794Y0111497D03*
X0168585Y0111497D03*
X0172436Y0111497D03*
X0172436Y0111016D03*
D105*
X0172195Y0085266D03*
X0172195Y0084785D03*
X0170270Y0079250D03*
X0170270Y0078769D03*
X0161366Y0084785D03*
X0161366Y0085266D03*
D106*
X0157034Y0084785D03*
X0148130Y0079250D03*
X0148130Y0078769D03*
X0167863Y0078769D03*
D107*
X0164735Y0078769D03*
X0164735Y0079250D03*
X0165697Y0084304D03*
X0165697Y0084785D03*
X0153184Y0079731D03*
X0153184Y0079250D03*
X0153184Y0078769D03*
X0150296Y0084785D03*
X0150296Y0085266D03*
X0150296Y0085748D03*
X0146205Y0085748D03*
X0146205Y0084304D03*
X0157997Y0111016D03*
X0160884Y0110053D03*
X0163772Y0111016D03*
X0168826Y0110053D03*
X0101444Y0085748D03*
X0101444Y0084785D03*
D108*
X0101324Y0083822D03*
X0105174Y0083822D03*
X0105415Y0084304D03*
X0097474Y0083822D03*
X0122020Y0084304D03*
X0142234Y0083822D03*
X0145363Y0081175D03*
X0148250Y0085748D03*
X0154026Y0085748D03*
X0156192Y0084304D03*
X0155951Y0083822D03*
X0151138Y0078769D03*
X0162689Y0078769D03*
X0166780Y0079250D03*
X0162930Y0084785D03*
X0167502Y0093448D03*
X0166540Y0111016D03*
X0170631Y0111978D03*
X0160764Y0111016D03*
X0149213Y0111016D03*
D109*
X0170510Y0110534D03*
X0170029Y0085748D03*
X0168344Y0085748D03*
X0166901Y0085748D03*
X0164494Y0085748D03*
X0161366Y0085748D03*
X0159200Y0085748D03*
X0151980Y0085748D03*
X0151980Y0085266D03*
X0151980Y0084304D03*
X0145002Y0079731D03*
X0141151Y0078769D03*
X0133210Y0084785D03*
X0133210Y0085266D03*
X0133210Y0085748D03*
X0122381Y0085748D03*
X0101204Y0084304D03*
X0097353Y0084304D03*
X0097353Y0085748D03*
X0160644Y0078769D03*
X0171473Y0079250D03*
X0171473Y0079731D03*
X0172195Y0085748D03*
D110*
X0168465Y0084785D03*
X0158598Y0078769D03*
X0141031Y0079731D03*
X0139106Y0078769D03*
X0137903Y0085266D03*
X0135255Y0085748D03*
X0131164Y0080694D03*
X0154748Y0111016D03*
X0146566Y0111497D03*
X0143678Y0111497D03*
D111*
X0171112Y0098261D03*
X0155710Y0079250D03*
X0155710Y0078769D03*
X0136218Y0078769D03*
X0136218Y0079250D03*
D112*
X0142355Y0084785D03*
X0144280Y0084304D03*
X0146205Y0083822D03*
X0148130Y0084304D03*
X0145242Y0080694D03*
X0145242Y0080213D03*
X0145242Y0079250D03*
X0145242Y0078769D03*
X0126712Y0084304D03*
X0162810Y0079250D03*
X0164735Y0079731D03*
X0165697Y0083822D03*
X0166660Y0110053D03*
X0166660Y0110534D03*
D113*
X0170510Y0111497D03*
X0157275Y0111978D03*
X0154868Y0110534D03*
X0151980Y0111016D03*
X0149093Y0110534D03*
X0149093Y0110053D03*
X0140189Y0085748D03*
X0140189Y0085266D03*
X0140189Y0084785D03*
X0140189Y0084304D03*
X0138985Y0079250D03*
X0143076Y0078769D03*
X0150055Y0083822D03*
X0153906Y0084304D03*
X0157756Y0084304D03*
X0160163Y0083822D03*
X0160403Y0079731D03*
X0158478Y0079250D03*
X0168585Y0079731D03*
X0171473Y0080213D03*
X0171473Y0080694D03*
X0170992Y0083822D03*
X0168344Y0085266D03*
X0133450Y0083822D03*
X0129359Y0085748D03*
X0124306Y0084304D03*
X0122140Y0084785D03*
X0131044Y0079250D03*
X0109626Y0084304D03*
X0107461Y0083822D03*
X0106979Y0084304D03*
X0103129Y0084304D03*
X0099278Y0084304D03*
X0095428Y0084304D03*
X0095428Y0084785D03*
X0095428Y0085266D03*
X0095428Y0083822D03*
X0093262Y0083822D03*
X0093262Y0084304D03*
X0093262Y0084785D03*
X0093262Y0085266D03*
X0093262Y0085748D03*
D114*
X0130202Y0084304D03*
X0132127Y0078769D03*
D115*
X0128517Y0078769D03*
X0128517Y0079250D03*
X0128517Y0079731D03*
X0128517Y0080213D03*
X0128517Y0080694D03*
X0126833Y0084785D03*
X0121779Y0083822D03*
X0109265Y0084785D03*
X0109265Y0085266D03*
X0109265Y0085748D03*
X0144159Y0084785D03*
X0162930Y0084304D03*
X0163652Y0110534D03*
X0166299Y0111497D03*
X0154507Y0111497D03*
X0149454Y0111497D03*
X0146325Y0111978D03*
X0143919Y0111978D03*
D116*
X0103731Y0079250D03*
X0103731Y0078769D03*
D117*
X0161366Y0085026D03*
X0170270Y0079491D03*
X0170270Y0079010D03*
X0172195Y0085026D03*
D118*
X0168706Y0079491D03*
X0168706Y0079010D03*
D119*
X0168706Y0079250D03*
D120*
X0171112Y0084304D03*
X0162930Y0085266D03*
X0162930Y0085748D03*
X0160283Y0084304D03*
X0158117Y0083822D03*
X0160523Y0079250D03*
X0152101Y0083822D03*
X0150175Y0084304D03*
X0151138Y0079250D03*
X0142956Y0079250D03*
X0141031Y0079250D03*
X0142234Y0084304D03*
X0142234Y0085748D03*
X0135255Y0084304D03*
X0133330Y0084304D03*
X0130924Y0081175D03*
X0124186Y0084785D03*
X0124186Y0085266D03*
X0124186Y0085748D03*
X0122260Y0085266D03*
X0119132Y0085266D03*
X0119132Y0084785D03*
X0119132Y0084304D03*
X0119132Y0083822D03*
X0119132Y0085748D03*
X0114800Y0083822D03*
X0095308Y0085748D03*
X0154988Y0110053D03*
X0160764Y0110534D03*
X0170631Y0111016D03*
D121*
X0176286Y0112700D03*
X0176286Y0113182D03*
X0176045Y0113663D03*
X0176286Y0080453D03*
X0176286Y0079972D03*
X0176286Y0079491D03*
X0083155Y0104037D03*
D122*
X0095308Y0085988D03*
X0097473Y0084063D03*
X0114800Y0084063D03*
X0114800Y0083582D03*
X0119132Y0084063D03*
X0119132Y0084544D03*
X0119132Y0085026D03*
X0119132Y0085507D03*
X0119132Y0085988D03*
X0122260Y0085026D03*
X0124186Y0085026D03*
X0124186Y0085507D03*
X0124186Y0085988D03*
X0129239Y0085988D03*
X0133330Y0084063D03*
X0130924Y0080935D03*
X0141031Y0079491D03*
X0145122Y0079491D03*
X0146325Y0084544D03*
X0146566Y0085026D03*
X0150175Y0084063D03*
X0152101Y0084063D03*
X0152101Y0084544D03*
X0152101Y0085026D03*
X0159080Y0085988D03*
X0160283Y0084063D03*
X0162930Y0085507D03*
X0165577Y0084063D03*
X0166781Y0085988D03*
X0168465Y0085507D03*
X0169909Y0085988D03*
X0171112Y0084063D03*
X0166781Y0079491D03*
X0160523Y0079491D03*
X0142234Y0084063D03*
X0142234Y0084544D03*
X0142234Y0085988D03*
X0154988Y0109812D03*
X0160764Y0110294D03*
X0166781Y0109812D03*
D123*
X0170510Y0113663D03*
X0170992Y0098021D03*
X0170992Y0093689D03*
X0157756Y0093689D03*
X0148611Y0079972D03*
X0155831Y0079491D03*
X0136338Y0079491D03*
D124*
X0103610Y0079491D03*
X0103610Y0079972D03*
X0103610Y0080453D03*
D125*
X0083155Y0102352D03*
X0176286Y0112460D03*
X0176286Y0112941D03*
X0176286Y0113422D03*
X0176286Y0080213D03*
X0176286Y0079731D03*
D126*
X0155951Y0079731D03*
X0147529Y0084785D03*
X0136458Y0079731D03*
X0102527Y0085266D03*
X0149935Y0111978D03*
X0154026Y0111978D03*
X0165818Y0111978D03*
D127*
X0163652Y0110053D03*
X0161967Y0093448D03*
X0156914Y0085266D03*
X0148491Y0079731D03*
X0106137Y0084785D03*
X0106137Y0085266D03*
D128*
X0130081Y0083822D03*
X0132247Y0080213D03*
X0132247Y0079731D03*
X0082433Y0092967D03*
X0082433Y0093448D03*
X0082433Y0098261D03*
X0082433Y0098743D03*
X0082433Y0099224D03*
X0082433Y0099705D03*
X0082433Y0100187D03*
D129*
X0103610Y0080213D03*
X0103610Y0079731D03*
D130*
X0136579Y0079972D03*
X0156071Y0079972D03*
X0160884Y0111738D03*
D131*
X0171232Y0098502D03*
X0140911Y0079972D03*
D132*
X0165577Y0080213D03*
X0165577Y0080694D03*
D133*
X0153906Y0080213D03*
D134*
X0139346Y0080213D03*
X0139346Y0080694D03*
D135*
X0165577Y0080935D03*
X0165577Y0080453D03*
D136*
X0153906Y0080453D03*
D137*
X0139346Y0080453D03*
X0139346Y0080935D03*
D138*
X0176406Y0081175D03*
X0176406Y0080694D03*
X0176406Y0093448D03*
X0176406Y0098261D03*
X0176406Y0098743D03*
X0176406Y0099224D03*
X0176406Y0110053D03*
X0176406Y0110534D03*
X0176406Y0111016D03*
X0176406Y0111497D03*
X0176406Y0111978D03*
D139*
X0157636Y0080694D03*
D140*
X0150296Y0080694D03*
X0151980Y0112460D03*
X0151980Y0112941D03*
X0151980Y0113422D03*
D141*
X0103490Y0080694D03*
D142*
X0176406Y0080935D03*
X0176406Y0093208D03*
X0176406Y0093689D03*
X0176406Y0098021D03*
X0176406Y0098502D03*
X0176406Y0098983D03*
X0176406Y0109812D03*
X0176406Y0110294D03*
X0176406Y0110775D03*
X0176406Y0111256D03*
X0176406Y0111738D03*
X0176406Y0112219D03*
D143*
X0175805Y0083582D03*
X0157756Y0080935D03*
D144*
X0150176Y0080935D03*
D145*
X0103490Y0080935D03*
D146*
X0103129Y0084785D03*
X0103129Y0085748D03*
X0099279Y0085748D03*
X0099279Y0085266D03*
X0099279Y0084785D03*
X0124547Y0083822D03*
X0135376Y0084785D03*
X0135376Y0085266D03*
X0137782Y0084785D03*
X0137782Y0084304D03*
X0137782Y0085748D03*
X0144280Y0085748D03*
X0146445Y0111016D03*
X0151981Y0110534D03*
X0157997Y0110534D03*
X0170510Y0112460D03*
X0171473Y0081175D03*
D147*
X0165457Y0081175D03*
D148*
X0157756Y0081175D03*
D149*
X0150176Y0081175D03*
D150*
X0139346Y0081175D03*
D151*
X0137542Y0083822D03*
X0128397Y0081175D03*
X0126712Y0085266D03*
X0126712Y0085748D03*
X0112273Y0085748D03*
X0112273Y0085266D03*
X0112273Y0084785D03*
X0112273Y0084304D03*
X0112273Y0083822D03*
X0106017Y0085748D03*
X0151981Y0110053D03*
X0157997Y0110053D03*
X0160884Y0111497D03*
X0170510Y0112941D03*
X0170510Y0113422D03*
X0156794Y0085748D03*
X0163050Y0083822D03*
X0168345Y0083822D03*
D152*
X0103610Y0081175D03*
D153*
X0176166Y0081416D03*
X0176166Y0085507D03*
D154*
X0171473Y0081416D03*
X0161847Y0093689D03*
X0146205Y0083582D03*
X0126712Y0085026D03*
X0126712Y0085507D03*
X0126712Y0085988D03*
X0124547Y0083582D03*
X0112273Y0084063D03*
X0112273Y0084544D03*
X0112273Y0085026D03*
X0112273Y0085507D03*
X0112273Y0085988D03*
X0106017Y0085988D03*
X0106017Y0085507D03*
X0101204Y0083582D03*
X0149574Y0111738D03*
X0151981Y0110294D03*
X0154387Y0111738D03*
X0157997Y0110294D03*
X0163772Y0110294D03*
X0170510Y0113182D03*
D155*
X0165697Y0081416D03*
D156*
X0157756Y0081416D03*
X0151980Y0112219D03*
X0151980Y0112700D03*
X0151980Y0113182D03*
D157*
X0149093Y0081416D03*
X0139226Y0081416D03*
D158*
X0128517Y0081416D03*
X0121779Y0083582D03*
X0112394Y0083582D03*
X0106137Y0084544D03*
X0106137Y0085026D03*
X0156914Y0085026D03*
X0156914Y0085507D03*
X0162930Y0083582D03*
X0168465Y0083582D03*
X0163652Y0109812D03*
X0157876Y0109812D03*
D159*
X0103610Y0081416D03*
D160*
X0129841Y0081657D03*
X0129841Y0082379D03*
X0129841Y0082860D03*
X0129841Y0083341D03*
X0129841Y0102834D03*
X0129841Y0103315D03*
D161*
X0129841Y0103556D03*
X0129841Y0103074D03*
X0129841Y0083101D03*
X0129841Y0082619D03*
X0129841Y0082138D03*
X0129841Y0081897D03*
D162*
X0129841Y0083582D03*
X0082674Y0101390D03*
X0082674Y0105000D03*
D163*
X0086283Y0083582D03*
D164*
X0175925Y0083822D03*
X0175925Y0084304D03*
D165*
X0086283Y0083822D03*
D166*
X0175925Y0084063D03*
D167*
X0130202Y0084063D03*
D168*
X0086163Y0084063D03*
X0086163Y0084544D03*
X0086163Y0085026D03*
X0086163Y0085507D03*
X0086163Y0085988D03*
D169*
X0143798Y0111016D03*
X0168344Y0084304D03*
D170*
X0170871Y0092967D03*
X0143437Y0085266D03*
X0116004Y0085266D03*
X0116004Y0084785D03*
X0116004Y0084304D03*
X0116004Y0085748D03*
D171*
X0086163Y0085748D03*
X0086163Y0085266D03*
X0086163Y0084785D03*
X0086163Y0084304D03*
D172*
X0176045Y0084544D03*
X0176045Y0085026D03*
D173*
X0168344Y0084544D03*
X0154628Y0111256D03*
X0143798Y0111738D03*
D174*
X0170992Y0093208D03*
X0130322Y0085026D03*
X0130322Y0084544D03*
D175*
X0116004Y0084544D03*
X0116004Y0085026D03*
X0116004Y0085507D03*
X0116004Y0085988D03*
X0143437Y0085507D03*
X0143437Y0085026D03*
X0082794Y0113663D03*
D176*
X0176045Y0084785D03*
D177*
X0171112Y0084785D03*
X0171112Y0085266D03*
X0160283Y0084785D03*
X0172315Y0110053D03*
X0172315Y0110534D03*
X0097233Y0085266D03*
X0097233Y0084785D03*
D178*
X0153184Y0084785D03*
D179*
X0157756Y0092967D03*
X0130322Y0085266D03*
X0130322Y0084785D03*
D180*
X0130202Y0085507D03*
X0102527Y0085507D03*
X0102527Y0085026D03*
X0157876Y0093208D03*
X0161968Y0093208D03*
D181*
X0176166Y0099705D03*
X0176166Y0085748D03*
X0176166Y0085266D03*
X0083516Y0103796D03*
D182*
X0120817Y0085748D03*
X0146325Y0085266D03*
X0159080Y0085266D03*
X0164615Y0085266D03*
X0166780Y0085266D03*
X0169909Y0085266D03*
X0170631Y0110053D03*
X0168706Y0110534D03*
X0168706Y0111016D03*
D183*
X0176286Y0099465D03*
X0176286Y0085988D03*
D184*
X0176286Y0086229D03*
X0176286Y0086710D03*
D185*
X0168585Y0095855D03*
X0164975Y0095855D03*
X0164975Y0096336D03*
X0159922Y0097299D03*
X0154387Y0107165D03*
X0157997Y0108609D03*
X0163772Y0108609D03*
X0149574Y0107165D03*
X0126712Y0087673D03*
X0126712Y0087192D03*
X0126712Y0086710D03*
X0126712Y0086229D03*
X0116846Y0088154D03*
X0112273Y0087192D03*
X0112273Y0086710D03*
X0112273Y0086229D03*
D186*
X0116004Y0086229D03*
X0116004Y0086710D03*
X0116004Y0087192D03*
X0082794Y0113904D03*
D187*
X0086283Y0086229D03*
D188*
X0176286Y0086470D03*
D189*
X0168345Y0086470D03*
X0159922Y0094652D03*
X0156794Y0107406D03*
X0157997Y0107887D03*
X0122621Y0086470D03*
D190*
X0130322Y0086470D03*
X0130322Y0086951D03*
X0130322Y0087432D03*
X0149574Y0106925D03*
X0101204Y0086951D03*
D191*
X0112273Y0086951D03*
X0112273Y0086470D03*
X0126712Y0086470D03*
X0126712Y0086951D03*
X0126712Y0087432D03*
X0126712Y0087913D03*
X0133932Y0086951D03*
X0149574Y0086951D03*
X0164735Y0094170D03*
X0164975Y0096096D03*
X0168585Y0096096D03*
X0171954Y0106925D03*
X0160884Y0107406D03*
X0157997Y0108850D03*
D192*
X0154267Y0106925D03*
X0116004Y0086951D03*
X0116004Y0086470D03*
X0082794Y0114144D03*
D193*
X0105896Y0086470D03*
X0157395Y0094170D03*
D194*
X0086283Y0086470D03*
D195*
X0086404Y0086710D03*
D196*
X0176166Y0086951D03*
X0176166Y0106925D03*
D197*
X0162328Y0095133D03*
X0161366Y0086951D03*
X0172195Y0086951D03*
X0121418Y0087432D03*
D198*
X0105535Y0086951D03*
X0083155Y0114625D03*
X0156071Y0086951D03*
D199*
X0146205Y0086951D03*
D200*
X0159802Y0097539D03*
X0163652Y0108850D03*
X0163652Y0109331D03*
X0157876Y0109331D03*
X0097714Y0086951D03*
D201*
X0086644Y0086951D03*
D202*
X0165336Y0087192D03*
X0165336Y0087673D03*
D203*
X0146205Y0087673D03*
X0146205Y0087192D03*
D204*
X0136819Y0087192D03*
X0136819Y0087673D03*
D205*
X0093984Y0087192D03*
D206*
X0165336Y0087432D03*
X0165336Y0087913D03*
D207*
X0146205Y0087913D03*
X0146205Y0087432D03*
D208*
X0136819Y0087432D03*
X0136819Y0087913D03*
D209*
X0094105Y0087432D03*
D210*
X0121418Y0087673D03*
X0143798Y0107165D03*
X0143798Y0108128D03*
X0154628Y0107647D03*
X0168104Y0096336D03*
X0168344Y0095374D03*
D211*
X0094225Y0087673D03*
D212*
X0094345Y0087913D03*
D213*
X0165216Y0088154D03*
D214*
X0146205Y0088154D03*
D215*
X0136940Y0088154D03*
D216*
X0126833Y0088154D03*
X0157876Y0109091D03*
X0157876Y0109572D03*
X0163652Y0109572D03*
X0163652Y0109091D03*
D217*
X0094586Y0088154D03*
D218*
X0129841Y0088395D03*
X0129841Y0088876D03*
X0129841Y0089357D03*
X0129841Y0089839D03*
D219*
X0129841Y0090079D03*
X0129841Y0089598D03*
X0129841Y0089117D03*
X0129841Y0088635D03*
D220*
X0160042Y0090320D03*
D221*
X0083757Y0090320D03*
D222*
X0160524Y0090561D03*
X0160524Y0102352D03*
X0160524Y0104278D03*
D223*
X0083275Y0090561D03*
D224*
X0160764Y0090801D03*
X0160764Y0102112D03*
D225*
X0160884Y0105240D03*
X0160884Y0091042D03*
D226*
X0082914Y0091042D03*
D227*
X0161005Y0091283D03*
X0161005Y0105481D03*
D228*
X0145122Y0109812D03*
X0145122Y0110294D03*
X0145122Y0112219D03*
X0145122Y0112700D03*
X0145122Y0113182D03*
X0082794Y0101871D03*
X0082794Y0091283D03*
D229*
X0161125Y0091523D03*
X0161125Y0101149D03*
D230*
X0082674Y0091523D03*
D231*
X0161125Y0091764D03*
X0161125Y0101390D03*
D232*
X0082554Y0100909D03*
X0082554Y0100427D03*
X0082554Y0105481D03*
X0082554Y0109812D03*
X0082554Y0110294D03*
X0082554Y0110775D03*
X0082554Y0111256D03*
X0082554Y0111738D03*
X0082554Y0112219D03*
X0082554Y0092726D03*
X0082554Y0092245D03*
X0082554Y0091764D03*
D233*
X0161245Y0092005D03*
X0161245Y0092486D03*
X0161245Y0100187D03*
X0161245Y0100668D03*
D234*
X0082554Y0100668D03*
X0082554Y0101149D03*
X0082554Y0105240D03*
X0082554Y0110053D03*
X0082554Y0110534D03*
X0082554Y0111016D03*
X0082554Y0111497D03*
X0082554Y0111978D03*
X0082554Y0092486D03*
X0082554Y0092005D03*
D235*
X0161245Y0092245D03*
X0161245Y0092726D03*
X0161245Y0099946D03*
X0161245Y0100427D03*
X0161245Y0100909D03*
D236*
X0176286Y0092967D03*
D237*
X0167141Y0092967D03*
D238*
X0162088Y0092967D03*
X0082674Y0112460D03*
X0082674Y0112941D03*
X0082674Y0113422D03*
D239*
X0149454Y0092967D03*
D240*
X0149333Y0093208D03*
X0149333Y0093689D03*
D241*
X0157756Y0093448D03*
X0170992Y0093448D03*
D242*
X0149333Y0093448D03*
D243*
X0176406Y0093930D03*
X0176406Y0094411D03*
X0176406Y0094892D03*
X0176406Y0095374D03*
X0176406Y0095855D03*
X0176406Y0096336D03*
X0176406Y0096817D03*
X0176406Y0097299D03*
X0176406Y0097780D03*
X0176406Y0107165D03*
X0176406Y0107647D03*
X0176406Y0108128D03*
X0176406Y0108609D03*
X0176406Y0109091D03*
X0176406Y0109572D03*
D244*
X0149333Y0097299D03*
X0149333Y0096817D03*
X0149333Y0093930D03*
D245*
X0176406Y0094170D03*
X0176406Y0094652D03*
X0176406Y0095133D03*
X0176406Y0095614D03*
X0176406Y0096096D03*
X0176406Y0096577D03*
X0176406Y0097058D03*
X0176406Y0097539D03*
X0176406Y0107406D03*
X0176406Y0107887D03*
X0176406Y0108369D03*
X0176406Y0108850D03*
X0176406Y0109331D03*
D246*
X0149574Y0096577D03*
X0149574Y0094170D03*
D247*
X0167141Y0097780D03*
X0171232Y0094411D03*
D248*
X0151018Y0094411D03*
X0151018Y0094892D03*
D249*
X0151018Y0094652D03*
D250*
X0150897Y0095133D03*
D251*
X0150897Y0095374D03*
D252*
X0150777Y0095614D03*
X0150777Y0096096D03*
D253*
X0150777Y0095855D03*
D254*
X0150657Y0096336D03*
D255*
X0149333Y0097058D03*
X0149333Y0097539D03*
D256*
X0149454Y0097780D03*
D257*
X0155831Y0098021D03*
X0155831Y0098502D03*
D258*
X0155831Y0098261D03*
D259*
X0155951Y0098743D03*
D260*
X0156071Y0098983D03*
D261*
X0156071Y0099224D03*
D262*
X0156312Y0099465D03*
D263*
X0156793Y0099705D03*
D264*
X0161005Y0101630D03*
D265*
X0161005Y0111978D03*
X0145122Y0112460D03*
X0145122Y0112941D03*
X0145122Y0113422D03*
X0145122Y0110534D03*
X0145122Y0110053D03*
X0082794Y0104759D03*
X0082794Y0101630D03*
D266*
X0160884Y0101871D03*
X0160884Y0105000D03*
D267*
X0160163Y0102593D03*
D268*
X0083636Y0102593D03*
D269*
X0159922Y0103796D03*
D270*
X0160403Y0104037D03*
D271*
X0160644Y0104518D03*
D272*
X0145242Y0113663D03*
X0082914Y0104518D03*
D273*
X0160764Y0104759D03*
D274*
X0161005Y0105721D03*
X0161005Y0106203D03*
X0161005Y0106684D03*
X0160283Y0114866D03*
D275*
X0161005Y0106443D03*
X0161005Y0105962D03*
D276*
X0166058Y0106925D03*
D277*
X0161005Y0106925D03*
X0145122Y0108369D03*
X0145122Y0108850D03*
X0145122Y0109331D03*
X0083997Y0115588D03*
D278*
X0160884Y0107165D03*
D279*
X0145122Y0108609D03*
X0145122Y0109091D03*
X0145122Y0109572D03*
D280*
X0161968Y0112219D03*
X0161968Y0112700D03*
X0161968Y0113182D03*
D281*
X0161968Y0113422D03*
X0161968Y0112941D03*
X0161968Y0112460D03*
D282*
X0082674Y0112700D03*
X0082674Y0113182D03*
D283*
X0162088Y0113663D03*
D284*
X0152101Y0113663D03*
D285*
X0167382Y0113904D03*
D286*
X0149454Y0113904D03*
D287*
X0160403Y0114625D03*
X0160644Y0114144D03*
D288*
X0160644Y0114385D03*
D289*
X0083155Y0114866D03*
X0082914Y0114385D03*
D290*
X0160163Y0115107D03*
D291*
X0159922Y0115347D03*
D292*
X0159441Y0115588D03*
D293*
X0129841Y0115829D03*
D294*
X0129841Y0116069D03*
D295*
X0129841Y0116310D03*
D296*
X0129841Y0116551D03*
D297*
X0129841Y0117273D03*
D298*
X0129841Y0117513D03*
D299*
X0129841Y0117754D03*
D300*
X0129841Y0117995D03*
D301*
X0129841Y0118235D03*
D302*
X0129841Y0118476D03*
D303*
X0129841Y0118716D03*
D304*
X0129841Y0118957D03*
D305*
X0129841Y0119198D03*
D306*
X0129841Y0119438D03*
D307*
X0129841Y0119679D03*
D308*
X0129841Y0119920D03*
D309*
X0129841Y0120160D03*
D310*
X0129841Y0120401D03*
D311*
X0129841Y0120642D03*
D312*
X0133658Y0122271D03*
D313*
X0114248Y0122409D03*
X0114248Y0127089D03*
X0114248Y0127640D03*
X0114248Y0128466D03*
X0114248Y0129017D03*
X0114248Y0129292D03*
X0114248Y0133835D03*
X0114248Y0138515D03*
X0114248Y0141819D03*
X0114248Y0144572D03*
X0114248Y0148977D03*
X0114248Y0149528D03*
X0114248Y0152694D03*
X0114248Y0156823D03*
X0114248Y0157374D03*
D314*
X0114248Y0157236D03*
X0114248Y0156961D03*
X0114248Y0156686D03*
X0114248Y0152831D03*
X0114248Y0149665D03*
X0114248Y0149390D03*
X0114248Y0149115D03*
X0114248Y0144434D03*
X0114248Y0141681D03*
X0114248Y0138377D03*
X0114248Y0134248D03*
X0114248Y0133972D03*
X0114248Y0129430D03*
X0114248Y0128879D03*
X0114248Y0128604D03*
X0114248Y0127502D03*
X0114248Y0127227D03*
X0114248Y0126952D03*
X0114248Y0122547D03*
D315*
X0131937Y0122684D03*
X0131937Y0129567D03*
D316*
X0111770Y0129567D03*
X0111770Y0122684D03*
D317*
X0132144Y0122822D03*
X0132144Y0129705D03*
X0132144Y0133422D03*
X0132144Y0134523D03*
X0128151Y0158613D03*
D318*
X0111564Y0134523D03*
X0111564Y0129705D03*
X0111564Y0122822D03*
D319*
X0132281Y0122960D03*
X0132281Y0129843D03*
D320*
X0111495Y0129843D03*
X0111495Y0122960D03*
X0111495Y0153244D03*
D321*
X0132350Y0158613D03*
X0132350Y0134798D03*
X0132350Y0129980D03*
X0132350Y0123097D03*
D322*
X0111357Y0123097D03*
X0111357Y0129980D03*
X0111357Y0134798D03*
X0111357Y0138102D03*
X0111357Y0156410D03*
D323*
X0132419Y0158475D03*
X0132419Y0148426D03*
X0132419Y0130118D03*
X0132419Y0123235D03*
D324*
X0111288Y0123235D03*
X0111288Y0130118D03*
D325*
X0129459Y0135899D03*
X0129459Y0137001D03*
X0132488Y0142782D03*
X0132488Y0148289D03*
X0132488Y0158338D03*
X0127807Y0159164D03*
X0124641Y0159164D03*
X0124641Y0159439D03*
X0124641Y0159714D03*
X0124641Y0159990D03*
X0124641Y0160540D03*
X0124641Y0158613D03*
X0124641Y0158338D03*
X0132488Y0130255D03*
X0132488Y0126126D03*
X0132488Y0123373D03*
D326*
X0129115Y0123373D03*
X0129115Y0130255D03*
X0129941Y0132871D03*
X0130767Y0140305D03*
X0131593Y0140305D03*
D327*
X0111220Y0130255D03*
X0111220Y0126126D03*
X0111220Y0123373D03*
X0111220Y0153657D03*
D328*
X0129528Y0135762D03*
X0132556Y0135211D03*
X0132556Y0137689D03*
X0132556Y0130393D03*
X0132556Y0123510D03*
X0132556Y0148151D03*
D329*
X0121406Y0160953D03*
X0128977Y0130393D03*
X0130079Y0130393D03*
X0130079Y0123510D03*
X0128977Y0123510D03*
D330*
X0111151Y0123510D03*
X0111151Y0130393D03*
X0111151Y0135211D03*
X0111151Y0137689D03*
X0111151Y0155997D03*
D331*
X0132625Y0130531D03*
X0132625Y0123648D03*
D332*
X0130147Y0123648D03*
X0128908Y0126401D03*
X0130147Y0130531D03*
X0129459Y0135074D03*
D333*
X0128840Y0130531D03*
X0128840Y0123648D03*
D334*
X0111151Y0123648D03*
X0111151Y0130531D03*
D335*
X0132625Y0130668D03*
X0132625Y0125713D03*
X0132625Y0123786D03*
X0132625Y0143195D03*
X0132625Y0158200D03*
D336*
X0130216Y0130668D03*
X0130216Y0125713D03*
X0130216Y0123786D03*
D337*
X0128771Y0123786D03*
X0128771Y0125713D03*
X0128771Y0130668D03*
X0130285Y0132458D03*
X0133451Y0139892D03*
D338*
X0111082Y0142094D03*
X0111082Y0142645D03*
X0111082Y0145948D03*
X0111082Y0150354D03*
X0111082Y0154070D03*
X0111082Y0130668D03*
X0111082Y0125713D03*
X0111082Y0123786D03*
D339*
X0132694Y0123923D03*
X0132694Y0124199D03*
X0132694Y0125300D03*
X0132694Y0125575D03*
X0132694Y0130806D03*
X0132694Y0131081D03*
X0132694Y0135624D03*
X0132694Y0135899D03*
X0132694Y0137276D03*
X0132694Y0138653D03*
X0132694Y0138928D03*
X0132694Y0139479D03*
X0132694Y0140855D03*
X0132694Y0141130D03*
X0132694Y0142232D03*
X0132694Y0142507D03*
X0132694Y0143608D03*
X0132694Y0144159D03*
X0132694Y0149941D03*
X0132694Y0158062D03*
X0132832Y0160540D03*
X0132832Y0160815D03*
X0127601Y0159439D03*
D340*
X0123678Y0158062D03*
X0123678Y0157787D03*
X0133451Y0140029D03*
X0133451Y0139754D03*
X0128771Y0132596D03*
X0130285Y0130806D03*
X0128771Y0125850D03*
X0130285Y0125575D03*
X0130285Y0123923D03*
D341*
X0128702Y0123923D03*
X0128702Y0125575D03*
X0128702Y0130806D03*
D342*
X0111082Y0130806D03*
X0111082Y0132596D03*
X0111082Y0135624D03*
X0111082Y0137551D03*
X0111082Y0145811D03*
X0111082Y0147738D03*
X0111082Y0153933D03*
X0111082Y0155860D03*
X0111082Y0128328D03*
X0111082Y0125850D03*
X0111082Y0123923D03*
D343*
X0129528Y0137414D03*
X0132694Y0137414D03*
X0132694Y0138790D03*
X0132694Y0140993D03*
X0132694Y0143746D03*
X0132694Y0130944D03*
X0132694Y0125437D03*
X0132694Y0124061D03*
X0132832Y0160678D03*
D344*
X0126913Y0160678D03*
X0126913Y0157925D03*
X0130354Y0130944D03*
X0130354Y0125437D03*
X0130354Y0124061D03*
D345*
X0128633Y0124061D03*
X0128633Y0125437D03*
D346*
X0111013Y0125437D03*
X0111013Y0124061D03*
X0111013Y0128191D03*
X0111013Y0130944D03*
X0111013Y0136037D03*
X0111013Y0136863D03*
X0111013Y0140167D03*
X0111013Y0142369D03*
X0111013Y0146499D03*
X0111013Y0147050D03*
X0111013Y0154346D03*
X0111013Y0155172D03*
D347*
X0126913Y0157787D03*
X0126913Y0160540D03*
X0126913Y0160815D03*
X0130354Y0131081D03*
X0130354Y0125300D03*
X0130354Y0124199D03*
D348*
X0128633Y0124199D03*
X0128633Y0125300D03*
X0128633Y0131081D03*
X0133314Y0140305D03*
X0126981Y0158062D03*
D349*
X0111013Y0155584D03*
X0111013Y0155309D03*
X0111013Y0155034D03*
X0111013Y0154483D03*
X0111013Y0154208D03*
X0111013Y0149941D03*
X0111013Y0147187D03*
X0111013Y0146361D03*
X0111013Y0142507D03*
X0111013Y0142232D03*
X0111013Y0140029D03*
X0111013Y0139754D03*
X0111013Y0137276D03*
X0111013Y0137001D03*
X0111013Y0136725D03*
X0111013Y0136175D03*
X0111013Y0135899D03*
X0111013Y0131357D03*
X0111013Y0131081D03*
X0111013Y0128053D03*
X0111013Y0125575D03*
X0111013Y0125300D03*
X0111013Y0124474D03*
X0111013Y0124199D03*
D350*
X0132763Y0124336D03*
X0132763Y0124887D03*
X0132763Y0125162D03*
X0132763Y0131219D03*
X0132763Y0131770D03*
X0132763Y0132045D03*
X0132763Y0136312D03*
X0132763Y0136588D03*
X0132763Y0144021D03*
X0132763Y0146774D03*
X0132763Y0150078D03*
X0132763Y0150354D03*
X0132763Y0150904D03*
X0132763Y0151455D03*
X0132763Y0151730D03*
X0132763Y0151868D03*
X0132763Y0152143D03*
X0132763Y0153244D03*
X0132763Y0153520D03*
X0132763Y0156273D03*
X0132763Y0157649D03*
X0127532Y0159577D03*
D351*
X0130423Y0132045D03*
X0130423Y0131770D03*
X0130423Y0131219D03*
X0130423Y0125162D03*
X0130423Y0124887D03*
X0130423Y0124336D03*
D352*
X0128633Y0124336D03*
X0128633Y0125162D03*
X0128633Y0131219D03*
X0128633Y0132183D03*
X0126981Y0160403D03*
D353*
X0111013Y0155447D03*
X0111013Y0154896D03*
X0111013Y0154621D03*
X0111013Y0150078D03*
X0111013Y0147600D03*
X0111013Y0147325D03*
X0111013Y0146224D03*
X0111013Y0139892D03*
X0111013Y0137138D03*
X0111013Y0135762D03*
X0111013Y0132458D03*
X0111013Y0132183D03*
X0111013Y0132045D03*
X0111013Y0131219D03*
X0111013Y0127915D03*
X0111013Y0125162D03*
X0111013Y0124336D03*
D354*
X0132763Y0124474D03*
X0132763Y0124749D03*
X0132763Y0131357D03*
X0132763Y0131632D03*
X0132763Y0136175D03*
X0132763Y0136725D03*
X0132763Y0137001D03*
X0132763Y0143884D03*
X0132763Y0146361D03*
X0132763Y0146637D03*
X0132763Y0146912D03*
X0132763Y0147187D03*
X0132763Y0150491D03*
X0132763Y0150766D03*
X0132763Y0151042D03*
X0132763Y0151317D03*
X0132763Y0152281D03*
X0132763Y0152556D03*
X0132763Y0156410D03*
X0132763Y0157787D03*
D355*
X0130423Y0131632D03*
X0130423Y0131357D03*
X0130423Y0124749D03*
X0130423Y0124474D03*
D356*
X0128564Y0124474D03*
X0128564Y0124749D03*
X0128564Y0131357D03*
X0128564Y0131632D03*
X0130492Y0150491D03*
X0130492Y0150766D03*
X0130492Y0151042D03*
X0130492Y0151317D03*
D357*
X0132763Y0151179D03*
X0132763Y0150629D03*
X0132763Y0152418D03*
X0132763Y0156548D03*
X0132763Y0157925D03*
X0132763Y0147050D03*
X0132763Y0146499D03*
X0132763Y0142369D03*
X0132763Y0136863D03*
X0132763Y0136037D03*
X0132763Y0131494D03*
X0132763Y0124612D03*
D358*
X0130423Y0124612D03*
X0130423Y0131494D03*
D359*
X0128564Y0131494D03*
X0128564Y0124612D03*
X0130492Y0150629D03*
X0130492Y0151179D03*
D360*
X0110944Y0131494D03*
X0110944Y0124612D03*
D361*
X0110944Y0124749D03*
X0110944Y0131632D03*
X0110944Y0146637D03*
X0110944Y0146912D03*
D362*
X0130492Y0150904D03*
X0130492Y0151455D03*
X0128564Y0132045D03*
X0128564Y0131770D03*
X0128564Y0124887D03*
D363*
X0110944Y0124887D03*
X0110944Y0131770D03*
X0110944Y0136312D03*
X0110944Y0136588D03*
X0110944Y0146774D03*
D364*
X0132763Y0150216D03*
X0132763Y0151592D03*
X0132763Y0152005D03*
X0132763Y0153382D03*
X0132763Y0136450D03*
X0132763Y0131907D03*
X0132763Y0125025D03*
D365*
X0130423Y0125025D03*
X0130423Y0131907D03*
D366*
X0128564Y0131907D03*
X0128564Y0125025D03*
X0130492Y0151592D03*
D367*
X0111013Y0150216D03*
X0111013Y0147463D03*
X0111013Y0146086D03*
X0111013Y0154759D03*
X0111013Y0132320D03*
X0111013Y0131907D03*
X0111013Y0125025D03*
D368*
X0132556Y0125850D03*
X0132556Y0132871D03*
X0132556Y0145535D03*
X0132556Y0148013D03*
D369*
X0121406Y0160815D03*
X0121406Y0161091D03*
X0130079Y0125850D03*
D370*
X0132556Y0125988D03*
X0132556Y0132733D03*
X0132556Y0142920D03*
X0127738Y0159301D03*
D371*
X0129941Y0125988D03*
D372*
X0128908Y0125988D03*
X0128908Y0133284D03*
D373*
X0111151Y0125988D03*
X0111151Y0145673D03*
X0111151Y0153795D03*
D374*
X0128908Y0133146D03*
X0128908Y0132871D03*
X0128908Y0126126D03*
D375*
X0132419Y0126263D03*
X0132419Y0134936D03*
D376*
X0128908Y0133009D03*
X0128908Y0126263D03*
D377*
X0111288Y0126263D03*
X0111288Y0134936D03*
X0111288Y0137964D03*
X0111288Y0153520D03*
X0111288Y0156273D03*
D378*
X0128014Y0158888D03*
X0132281Y0126401D03*
D379*
X0111357Y0126401D03*
X0111357Y0153382D03*
D380*
X0132281Y0158751D03*
X0132144Y0144847D03*
X0132144Y0126539D03*
D381*
X0111908Y0126539D03*
D382*
X0131937Y0126676D03*
X0128358Y0158338D03*
X0132075Y0159164D03*
D383*
X0111977Y0151317D03*
X0111977Y0151042D03*
X0111977Y0150766D03*
X0111977Y0150491D03*
X0111977Y0126676D03*
D384*
X0114248Y0126814D03*
X0114248Y0127365D03*
X0114248Y0128741D03*
X0114248Y0134110D03*
X0114248Y0138240D03*
X0114248Y0141543D03*
X0114248Y0149252D03*
X0114248Y0149803D03*
X0114248Y0152969D03*
X0114248Y0157099D03*
D385*
X0133727Y0127778D03*
D386*
X0111082Y0127778D03*
D387*
X0133795Y0127915D03*
D388*
X0133795Y0128053D03*
D389*
X0133795Y0128191D03*
D390*
X0133727Y0128328D03*
D391*
X0114248Y0129154D03*
X0114248Y0133697D03*
X0114248Y0141956D03*
X0114248Y0157512D03*
D392*
X0133382Y0139616D03*
X0128702Y0130944D03*
D393*
X0132694Y0132183D03*
X0132694Y0132458D03*
X0132694Y0135762D03*
X0132694Y0137138D03*
X0132694Y0139066D03*
X0132694Y0139341D03*
X0132694Y0140442D03*
X0132694Y0140717D03*
X0132694Y0141268D03*
X0132694Y0142094D03*
X0132694Y0142645D03*
X0132694Y0143471D03*
X0132694Y0145948D03*
X0132694Y0146224D03*
X0132694Y0147325D03*
X0132694Y0147600D03*
D394*
X0129528Y0148151D03*
X0130354Y0132183D03*
D395*
X0132694Y0132320D03*
X0132694Y0139203D03*
X0132694Y0140580D03*
X0132694Y0143333D03*
X0132694Y0146086D03*
X0132694Y0147463D03*
X0132694Y0156135D03*
D396*
X0130354Y0132320D03*
D397*
X0128633Y0132320D03*
D398*
X0128702Y0132458D03*
D399*
X0132625Y0132596D03*
X0132625Y0135349D03*
X0132625Y0137551D03*
X0132625Y0141406D03*
X0132625Y0143058D03*
X0132625Y0145811D03*
X0132625Y0147738D03*
X0132625Y0153107D03*
D400*
X0130216Y0132596D03*
D401*
X0130079Y0132733D03*
D402*
X0128771Y0132733D03*
X0133451Y0140167D03*
X0123678Y0157925D03*
D403*
X0111082Y0155722D03*
X0111082Y0147876D03*
X0111082Y0139616D03*
X0111082Y0137414D03*
X0111082Y0135486D03*
X0111082Y0132733D03*
D404*
X0111151Y0132871D03*
X0111151Y0135349D03*
X0111151Y0140305D03*
X0111151Y0145535D03*
X0111151Y0148013D03*
D405*
X0124641Y0158200D03*
X0124641Y0158751D03*
X0124641Y0159026D03*
X0124641Y0159577D03*
X0124641Y0160127D03*
X0124641Y0160403D03*
X0129459Y0147325D03*
X0129459Y0146224D03*
X0132488Y0145398D03*
X0132488Y0137964D03*
X0129459Y0137138D03*
X0132488Y0133009D03*
D406*
X0111220Y0133009D03*
X0111220Y0145398D03*
X0111220Y0148151D03*
D407*
X0132419Y0145260D03*
X0132419Y0138102D03*
X0132419Y0133146D03*
D408*
X0111288Y0133146D03*
X0111288Y0145260D03*
X0111288Y0148289D03*
D409*
X0132281Y0134661D03*
X0132281Y0133284D03*
D410*
X0111357Y0133284D03*
X0111357Y0145123D03*
X0111357Y0148426D03*
D411*
X0111908Y0133422D03*
D412*
X0131937Y0133559D03*
X0131937Y0134385D03*
D413*
X0111977Y0133559D03*
X0111977Y0150904D03*
X0111977Y0151455D03*
D414*
X0111770Y0134385D03*
D415*
X0111495Y0134661D03*
X0111495Y0156548D03*
D416*
X0124641Y0158888D03*
X0124641Y0160265D03*
X0129459Y0147463D03*
X0132488Y0135074D03*
D417*
X0111220Y0135074D03*
X0111220Y0137827D03*
X0111220Y0156135D03*
D418*
X0129459Y0135211D03*
D419*
X0129528Y0135349D03*
X0129528Y0138102D03*
D420*
X0132625Y0135486D03*
X0132625Y0144297D03*
X0132625Y0145673D03*
X0132625Y0147876D03*
D421*
X0129459Y0135486D03*
D422*
X0129459Y0135624D03*
X0129459Y0137276D03*
D423*
X0129528Y0136863D03*
X0129528Y0136037D03*
D424*
X0129459Y0136175D03*
X0129459Y0136725D03*
X0129459Y0146637D03*
X0129459Y0146912D03*
D425*
X0129459Y0146774D03*
X0129459Y0136588D03*
X0129459Y0136312D03*
D426*
X0129459Y0136450D03*
D427*
X0110944Y0136450D03*
D428*
X0129528Y0137551D03*
X0127463Y0159714D03*
D429*
X0129528Y0137689D03*
D430*
X0132556Y0137827D03*
X0129528Y0146086D03*
D431*
X0129459Y0137827D03*
D432*
X0129459Y0137964D03*
D433*
X0112803Y0138653D03*
X0112803Y0143884D03*
X0112803Y0144159D03*
D434*
X0112734Y0140993D03*
X0112734Y0138790D03*
D435*
X0112734Y0138928D03*
X0112734Y0139479D03*
X0112734Y0140855D03*
X0112734Y0141130D03*
X0112734Y0143608D03*
D436*
X0112734Y0143471D03*
X0112734Y0140717D03*
X0112734Y0140442D03*
X0112734Y0139341D03*
X0112734Y0139066D03*
D437*
X0112734Y0139203D03*
X0112734Y0140580D03*
D438*
X0112803Y0141268D03*
X0112803Y0144021D03*
D439*
X0112871Y0141406D03*
X0112871Y0152281D03*
X0112871Y0152556D03*
D440*
X0112183Y0142782D03*
D441*
X0112390Y0142920D03*
D442*
X0112527Y0143058D03*
D443*
X0112596Y0143195D03*
D444*
X0112665Y0143333D03*
D445*
X0112803Y0143746D03*
D446*
X0112940Y0144297D03*
D447*
X0131937Y0144710D03*
D448*
X0111770Y0144710D03*
D449*
X0111564Y0144847D03*
X0111564Y0148702D03*
D450*
X0132281Y0148564D03*
X0132281Y0144985D03*
D451*
X0111495Y0144985D03*
D452*
X0132350Y0145123D03*
D453*
X0129528Y0145398D03*
D454*
X0129459Y0145535D03*
D455*
X0129459Y0145673D03*
X0129459Y0147876D03*
X0127394Y0159852D03*
X0119823Y0159852D03*
D456*
X0129459Y0147738D03*
X0129459Y0145811D03*
D457*
X0129459Y0145948D03*
X0129459Y0147600D03*
D458*
X0129528Y0147187D03*
X0129528Y0146361D03*
D459*
X0129459Y0146499D03*
X0129459Y0147050D03*
D460*
X0129459Y0148013D03*
X0122026Y0157787D03*
X0127257Y0159990D03*
D461*
X0111426Y0148564D03*
D462*
X0132212Y0148702D03*
D463*
X0132006Y0148839D03*
D464*
X0111701Y0148839D03*
D465*
X0111977Y0150629D03*
X0111977Y0151179D03*
D466*
X0111977Y0151592D03*
D467*
X0130423Y0151730D03*
D468*
X0112045Y0151730D03*
D469*
X0112871Y0151868D03*
X0112871Y0152143D03*
D470*
X0112871Y0152005D03*
D471*
X0112871Y0152418D03*
D472*
X0111701Y0153107D03*
D473*
X0131318Y0153657D03*
D474*
X0131180Y0153795D03*
D475*
X0131042Y0153933D03*
X0131042Y0155860D03*
D476*
X0130973Y0154070D03*
D477*
X0130973Y0154208D03*
X0130973Y0155584D03*
D478*
X0130905Y0155172D03*
X0130905Y0154346D03*
D479*
X0130905Y0154483D03*
X0130905Y0155309D03*
D480*
X0130905Y0155447D03*
X0130905Y0154621D03*
D481*
X0130836Y0154759D03*
D482*
X0130836Y0154896D03*
D483*
X0130836Y0155034D03*
D484*
X0130973Y0155722D03*
D485*
X0131180Y0155997D03*
D486*
X0125261Y0157649D03*
D487*
X0108811Y0157649D03*
D488*
X0106952Y0157787D03*
D489*
X0121957Y0157925D03*
X0121957Y0158475D03*
X0121957Y0159301D03*
X0121957Y0159852D03*
D490*
X0106883Y0157925D03*
D491*
X0120030Y0158338D03*
X0121957Y0158338D03*
X0121957Y0158613D03*
X0121957Y0159164D03*
X0121957Y0159439D03*
X0121957Y0159714D03*
X0121957Y0159990D03*
X0121957Y0160540D03*
X0120030Y0160540D03*
X0121957Y0158062D03*
X0125261Y0160815D03*
X0125261Y0161091D03*
D492*
X0106746Y0160815D03*
X0106746Y0158062D03*
D493*
X0128427Y0158200D03*
D494*
X0127188Y0160127D03*
X0125261Y0160953D03*
X0121957Y0160403D03*
X0121957Y0160127D03*
X0121957Y0159577D03*
X0121957Y0159026D03*
X0121957Y0158751D03*
X0121957Y0158200D03*
D495*
X0120167Y0158200D03*
D496*
X0106677Y0158200D03*
D497*
X0106608Y0158338D03*
X0106608Y0160540D03*
D498*
X0128289Y0158475D03*
D499*
X0124641Y0158475D03*
X0124641Y0159301D03*
X0124641Y0159852D03*
X0124641Y0160678D03*
D500*
X0119961Y0158475D03*
D501*
X0106539Y0158475D03*
D502*
X0119892Y0158613D03*
D503*
X0106539Y0158613D03*
D504*
X0128083Y0158751D03*
D505*
X0119823Y0158751D03*
X0119823Y0159026D03*
X0119823Y0160127D03*
D506*
X0106470Y0159577D03*
X0106470Y0159026D03*
X0106470Y0158751D03*
D507*
X0132212Y0158888D03*
D508*
X0121957Y0158888D03*
X0121957Y0160265D03*
D509*
X0119823Y0158888D03*
D510*
X0106470Y0158888D03*
D511*
X0132144Y0159026D03*
D512*
X0127876Y0159026D03*
D513*
X0119754Y0159164D03*
X0119754Y0159439D03*
X0119754Y0159714D03*
D514*
X0106470Y0159714D03*
X0106470Y0159439D03*
X0106470Y0159164D03*
X0106470Y0159990D03*
D515*
X0131937Y0159301D03*
D516*
X0119754Y0159301D03*
D517*
X0106470Y0159301D03*
X0106470Y0159852D03*
D518*
X0131868Y0159439D03*
D519*
X0131799Y0159577D03*
D520*
X0119754Y0159577D03*
D521*
X0131662Y0159714D03*
D522*
X0131593Y0159852D03*
D523*
X0131524Y0159990D03*
D524*
X0119823Y0159990D03*
D525*
X0131386Y0160127D03*
D526*
X0106539Y0160127D03*
D527*
X0131318Y0160265D03*
D528*
X0127119Y0160265D03*
D529*
X0119892Y0160265D03*
D530*
X0106539Y0160265D03*
D531*
X0131249Y0160403D03*
D532*
X0119961Y0160403D03*
D533*
X0106608Y0160403D03*
D534*
X0122026Y0160678D03*
D535*
X0120167Y0160678D03*
D536*
X0106677Y0160678D03*
D537*
X0130216Y0160953D03*
D538*
X0106883Y0160953D03*
D539*
X0130216Y0161091D03*
D540*
X0107021Y0161091D03*
D541*
X0130147Y0161228D03*
D542*
X0110394Y0161228D03*
D543*
X0114317Y0161366D03*
D544*
X0114317Y0161504D03*
X0114317Y0161779D03*
D545*
X0114317Y0161641D03*
M02*
